<svg xmlns="http://www.w3.org/2000/svg" viewBox="0 0 60 60" width="60" height="60">
	<g id="eyes-93">
		<path id="skin" d="M0 30L0 60L60 60L60 0L0 0L0 30Z" fill="$[skinColor]" />
		<path id="skin-tone" d="M0 30L0 60L60 60L60 0L0 0L0 30Z" mix-blend-mode="color-burn" fill="$[skinTone]" />
		<path id="white" d="M25.2 54.94C11.58 52.54 2.52 39.59 4.92 25.98C7.32 12.36 20.26 3.3 33.88 5.7C47.49 8.1 56.56 21.04 54.16 34.66C51.76 48.27 38.81 57.34 25.2 54.94Z" fill="#fff" stroke="#000" stroke-width="5" />
		<path id="iris" d="M30 41C26.13 41 23 37.87 23 34C23 30.13 26.13 27 30 27C33.87 27 37 30.13 37 34C37 37.87 33.87 41 30 41Z" fill="#000" stroke="$[eyeColor]" stroke-width="15" />
		<path id="pupil" d="M30 41C26.13 41 23 37.87 23 34C23 30.13 26.13 27 30 27C33.87 27 37 30.13 37 34C37 37.87 33.87 41 30 41Z" fill="#000" stroke="#000" stroke-width="15" />
		<path id="light" d="M30 27C28.89 27 28 26.11 28 25C28 23.89 28.89 23 30 23C31.11 23 32 23.89 32 25C32 26.11 31.11 27 30 27Z" fill="#fff" />
		<path id="eyelid" d="M5 27C5 27 12.57 18.02 25 17C37.43 15.98 51.57 25.71 54.43 24.98C57.29 24.24 57.86 18.14 56.86 12.26C55.86 6.38 60 0 60 0L0 0L5 27Z" fill="$[skinColor]" />
		<path id="eyelid-tone" d="M5 27C5 27 12.57 18.02 25 17C37.43 15.98 51.57 25.71 54.43 24.98C57.29 24.24 57.86 18.14 56.86 12.26C55.86 6.38 60 0 60 0L0 0L5 27Z" mix-blend-mode="color-burn" fill="$[skinTone]" />
		<path id="eyelid-stroke" d="M5 27C5 27 12.57 18.02 25 17C37.43 15.98 51.57 26 54.43 25.26C57.29 24.53 58 17.88 57 12" fill='none' stroke="#000" stroke-width="5" />
	</g>
</svg>