<svg xmlns="http://www.w3.org/2000/svg" viewBox="0 0 60 60" width="60" height="60">
	<g id="eyes-8">
		<path id="skin" d="M0 30L0 60L60 60L60 0L0 0L0 30Z" fill="$[skinColor]" />
		<path id="skin-tone" d="M0 30L0 60L60 60L60 0L0 0L0 30Z" mix-blend-mode="color-burn" fill="$[skinTone]" />
		<path id="white" d="M30 55C16.17 55 5 43.83 5 30C5 16.17 16.17 5 30 5C43.83 5 55 16.17 55 30C55 43.83 43.83 55 30 55Z" fill="#fff" stroke="#000" stroke-width="1" />
		<path id="pupil" d="M30 37C26.13 37 23 33.87 23 30C23 26.13 26.13 23 30 23C33.87 23 37 26.13 37 30C37 33.87 33.87 37 30 37Z" fill="#000" stroke="#000" stroke-width="1" />
		<path id="eyelid" d="M3.14 25.98C3.14 25.98 14.43 19.98 29.43 19.98C44.43 19.98 55.29 30 55.29 30L60 0L0 0L3.14 25.98ZM3.29 34.26C3.29 34.26 15 40.41 30 40.41C45 40.41 55.43 29.41 55.43 29.41L60 60L0 60L3.29 34.26Z" fill="$[skinColor]" />
		<path id="eyelid-tone" d="M3.14 25.98C3.14 25.98 14.43 19.98 29.43 19.98C44.43 19.98 55.29 30 55.29 30L60 0L0 0L3.14 25.98ZM3.29 34.26C3.29 34.26 15 40.41 30 40.41C45 40.41 55.43 29.41 55.43 29.41L60 60L0 60L3.29 34.26Z" mix-blend-mode="color-burn" fill="$[skinTone]" />
		<path id="eyelid-stroke" d="M5 35C5 35 15 40.69 30 40.69C45 40.69 54.14 30 54.14 30M5 25C5 25 15 20.12 30 20.12C45 20.12 54.14 30 54.14 30M30 49.69C16.17 49.69 5 43.83 5 30C5 16.17 16.17 11.26 30 11.26C43.83 11.26 55 16.17 55 30C55 43.83 43.83 49.69 30 49.69Z" fill='none' stroke="#000" stroke-width="1" />
	</g>
</svg>