<svg xmlns="http://www.w3.org/2000/svg" viewBox="0 0 60 60" width="60" height="60">
	<g id="eyes-8">
		<path id="skin" d="M0 30L0 60L60 60L60 0L0 0L0 30Z" fill="$[skinColor]" />
		<path id="skin-tone" d="M0 30L0 60L60 60L60 0L0 0L0 30Z" mix-blend-mode="color-burn" fill="$[skinTone]" />
		<path id="white" d="M30 55C16.17 55 5 43.83 5 30C5 16.17 16.17 5 30 5C43.83 5 55 16.17 55 30C55 43.83 43.83 55 30 55Z" fill="#fff" stroke="#000" stroke-width="5" />
		<path id="iris" d="M30 37C26.13 37 23 33.87 23 30C23 26.13 26.13 23 30 23C33.87 23 37 26.13 37 30C37 33.87 33.87 37 30 37Z" fill="#000" stroke="$[eyeColor]" stroke-width="15" />
		<path id="pupil" d="M30 37C26.13 37 23 33.87 23 30C23 26.13 26.13 23 30 23C33.87 23 37 26.13 37 30C37 33.87 33.87 37 30 37Z" fill="#000" stroke="#000" stroke-width="1" />
		<path id="light" d="M30 27C28.89 27 28 26.11 28 25C28 23.89 28.89 23 30 23C31.11 23 32 23.89 32 25C32 26.11 31.11 27 30 27Z" fill="#fff" />
		<path id="eyelid" d="M56.29 28.83C56.29 28.83 39.29 13.45 25 14C10.71 14.55 2 22 2 22L0 0L60 0L56.29 28.83Z" fill="$[skinColor]" />
		<path id="eyelid-tone" d="M56.29 28.83C56.29 28.83 39.29 13.45 25 14C10.71 14.55 2 22 2 22L0 0L60 0L56.29 28.83Z" mix-blend-mode="color-burn" fill="$[skinTone]" />
		<path id="eyelid-stroke" d="M55 28C55 28 39.29 13.45 25 14C10.71 14.55 2 22 2 22" fill='none' stroke="#000" stroke-width="5" />
	</g>
</svg>