<svg xmlns="http://www.w3.org/2000/svg" viewBox="0 0 60 60" width="60" height="60">
	<g id="eyes-2">
		<path id="skin" d="M0 30L0 60L60 60L60 0L0 0L0 30Z" fill="$[skinColor]" />
		<path id="skin-tone" d="M0 30L0 60L60 60L60 0L0 0L0 30Z" mix-blend-mode="color-burn" fill="$[skinTone]" />
		<path id="white" d="M24.2 52.94C10.58 50.54 1.52 37.59 3.92 23.98C6.32 10.36 19.26 1.3 32.88 3.7C46.49 6.1 55.56 19.04 53.16 32.66C50.76 46.27 37.81 55.34 24.2 52.94Z" fill="#fff" stroke="#000" stroke-width="1" />
		<path id="pupil" d="M29.75 21.43C19.91 19.69 17.3 34.46 27.15 36.2C37 37.94 39.6 23.16 29.75 21.43Z" fill="#000" stroke="#000" stroke-width="1" />
		<path id="eyelid" d="M4.79 19.06C4.79 19.06 16.37 10.94 50.84 17.02L53.44 2.25L4.2 -6.43L4.79 19.06Z" fill="$[skinColor]" />
		<path id="eyelid-tone" d="M4.79 19.06C4.79 19.06 16.37 10.94 50.84 17.02L53.44 2.25L4.2 -6.43L4.79 19.06Z" mix-blend-mode="color-burn" fill="$[skinTone]" />
		<path id="eyelid-stroke" d="M4.79 19.06C4.79 19.06 16.37 10.94 50.84 17.02C50.84 17.02 56.83 16.75 58.57 6.9" fill='none' stroke="#000" stroke-width="1" />
	</g>
</svg>