<svg xmlns="http://www.w3.org/2000/svg" viewBox="0 0 100 50" width="100" height="50">
	<g id="mouth-02">
		<path id="lips-color" d="M168 384C168 384 177 370.23 200 369.97C217.4 369.77 232 383.17 232 383.17C232 383.17 227.71 406.41 200 406.98C172.71 407.54 168 384 168 384Z" fill="$[lipColor]" />
		<path id="lips-line" d="M181.71 402.12C196.23 407.78 206.43 407.83 219.43 401.41M220.29 374.88C205.77 369.22 193 368.54 180 374.97M176 384C184 381.83 192 384 200 384C208 384 216 381.83 224 384M236 380C236 380 236 384 224 384M164 380C164 380 164 384 176 384" fill='none' stroke="#000" stroke-width="1" />
	</g>
</svg>