<svg xmlns="http://www.w3.org/2000/svg" viewBox="0 0 70 28" width="70" height="28">
	<g id="mouth-02">
		<path id="lips-color" d="M166 378C166 378 177 376.14 200 376C216.67 375.9 236 378 236 378C236 378 227.71 406.41 200 406.98C172.71 407.54 166 378 166 378Z" fill="$[lipColor]" />
		<path id="teeth" d="M168 380L234 380C234 380 222 391.69 200 391.69C180 391.69 168 380 168 380Z" fill='#fff' />
		<path id="lips-line" d="M168 380L234 380C234 380 222 391.69 200 391.69C180 391.69 168 380 168 380Z M168 380C168 380 190 381.41 200 381.41C210 381.41 234 380 234 380C234 380 222 392.12 200 392.12C180 392.12 168 380 168 380Z M181.71 402.12C196.23 407.78 206.43 407.83 219.43 401.41" fill='none' stroke="#000" stroke-width="1" />
	</g>
</svg>