<svg xmlns="http://www.w3.org/2000/svg" viewBox="0 0 100 50" width="100" height="50">
	<g id="mouth-11">
		<path id="lips-color" d="M168 388C177.86 376 183.43 368 200 376C212 368 224 376 232 384C222 392 227.71 405.43 200 406C172.71 406.56 176 392 168 388Z" fill="$[lipColor]" />
		<path id="teeth" d="M168 388C182.2 386.37 216 380 232 384C212 388 218 396 196 396C192 396 184.6 389.17 168 388Z" fill='#fff' />
		<path id="lips-line" d="M168 388C182.2 386.37 216 380 232 384C212 388 218 396 196 396C192 396 184.6 389.17 168 388ZM219.43 401.41C206.43 407.83 196.23 407.78 181.71 402.12M180 374.97C193 368.54 200 376 200 376C200 376 205.77 369.22 220.29 374.88" fill='none' stroke="#000" stroke-width="1" />
	</g>
</svg>