<svg xmlns="http://www.w3.org/2000/svg" viewBox="0 0 100 50" width="100" height="50">
	<g id="mouth-11">
		<path id="lips-color" d="M172 386C184 382 184 370 200 376C214 370 224 378 232 384C220 394 230 406 202 406C174.7 406 180 390 172 386Z" fill="$[lipColor]" />
		<path id="teeth" d="M172 386C204 386 212 380 232 384C216 392 218 396 196 396C192 396 188 392 172 386Z" fill='#fff' />
		<path id="lips-line" d="M172 386C204 386 212 380 232 384C216 392 218 396 196 396C192 396 188 392 172 386ZM222 400C210 408 197.43 408 184 402M182 378C195 371.57 200 376 200 376C200 376 205.48 370.34 220 376 M237.29 378.69C237.29 378.69 236 384 232 384" fill='none' stroke="#000" stroke-width="1" />
		<path id="space" d="M172 384L156 384" fill='rgba(0,0,0,0)' />
	</g>
</svg>