<svg xmlns="http://www.w3.org/2000/svg" viewBox="0 0 100 50" width="100" height="50">
	<g id="mouth-09">
		<path id="lips-color" d="M168 384C172 364 188 380 200 380C216 380 228 376 232 384C232 392 216 396 200 392C184 392 176 408 168 384Z" fill="$[lipColor]" />
		<path id="lips-line" d="M184 396C200 388.83 204 393.26 220 393.26M176 382.26C176 382.26 192 384 200 384C208 384 224 381.69 224 381.69M236 388C236 388 236 381.83 224 381.83M164 388C164 388 164 382.26 176 382.26" fill='none' stroke="#000" stroke-width="1" />
	</g>
</svg>