<svg xmlns="http://www.w3.org/2000/svg" viewBox="0 0 400 600" width="400" height="600">
	<g id="mouth-02">
		<path id="lips-color" d="M167 382C167 382 177 373.14 200 373C216.67 372.9 234 382 234 382C234 382 222.67 403.31 200 404C177.68 404.68 167 382 167 382Z" fill="$[lipColor]" />
		<path id="teeth" d="M176 384C176 384 190 380 200 380C210 380 224 384 224 384C224 384 216 392 200 392C184 392 176 384 176 384Z" fill='#fff' />
		<path id="lips-line" d="M176 384C176 384 190 380 200 380C210 380 224 384 224 384C224 384 216 392 200 392C184 392 176 384 176 384Z M180 376C196 372 204 372 220 376 M166 382C166 382 171 385.19 176 384M234 382C234 382 229 385.19 224 384 M185.71 400.69C200.86 404.83 202 404.55 214.86 400.12" fill='none' stroke="#000" stroke-width="1" />
	</g>
</svg>