<svg xmlns="http://www.w3.org/2000/svg" viewBox="0 0 100 50" width="100" height="50">
	<g id="mouth-02">
		<path id="lips-color" d="M168 384C168 384 177 372.26 200 372C217.4 371.8 232 383.17 232 383.17C232 383.17 228 396 200 396C172 396 168 384 168 384Z" fill="$[lipColor]" />
		<path id="lips-line" d="M180 393.12C196 397.55 204 397.55 220 393.12M220 376C204 370.26 192 369.98 180 376M176 382.26C176 382.26 192 384 200 384C208 384 224 381.69 224 381.69M236 388C236 388 236 381.83 224 381.83M164 388C164 388 164 382.26 176 382.26" fill='none' stroke="#000" stroke-width="1" />
	</g>
</svg>