<svg xmlns="http://www.w3.org/2000/svg" viewBox="0 0 400 600" width="400" height="600">
	<style>
		tspan { white-space:pre }
		.tattoo-07-01 { opacity: 0.749;fill: #000000 } 
		.tattoo-07-02 { opacity: 0.749;fill: #4f4e77 } 
	</style>
	<g id="tattoo-07">
		<path id="tattoo-07-01" fill-rule="evenodd" class="tattoo-07-01" d="M388.77 591.93C387.94 592.14 387.25 592.36 387.07 592.59L387.18 592.7C387.24 592.76 387.28 592.83 387.26 592.85C387.24 592.87 386.99 592.94 386.7 593.02C386.42 593.09 386.13 593.19 386.06 593.24C386 593.28 385.3 593.49 384.52 593.7C383.24 594.04 383.04 594.08 382.72 594.05C382.52 594.03 382.29 594.02 382.2 594.02C382.12 594.01 381.55 594.14 380.94 594.3C380.32 594.46 379.77 594.62 379.71 594.65C379.66 594.69 379.23 594.82 378.77 594.94C378.01 595.15 377.91 595.19 377.8 595.35C377.73 595.44 377.65 595.52 377.62 595.52C377.59 595.53 376.58 595.79 375.36 596.11C373.25 596.66 373.1 596.69 372.91 596.62C372.71 596.55 372.57 596.58 370.62 597.09C369.12 597.48 368.45 597.63 368.29 597.61C368.17 597.6 367.65 597.68 367.05 597.81C366.49 597.93 365.76 598.11 365.44 598.22C365.11 598.32 364.76 598.47 364.66 598.55C364.55 598.63 364.11 598.79 363.63 598.92C363.17 599.04 362.7 599.2 362.59 599.27C362.48 599.35 362.2 599.46 361.96 599.53C361.68 599.61 361.51 599.63 361.5 599.58C361.49 599.55 361.59 599.43 361.71 599.33C361.84 599.22 361.94 599.07 361.96 598.95C361.98 598.78 361.96 598.73 361.85 598.68C361.78 598.64 361.62 598.63 361.49 598.65C361.33 598.68 361.21 598.77 361.1 598.92C360.95 599.14 360.94 599.14 360.95 598.99C360.96 598.85 360.92 598.81 360.7 598.76C360.56 598.72 360.42 598.72 360.38 598.75C360.32 598.78 360.28 598.7 360.23 598.43C360.19 598.23 360.18 597.83 360.2 597.54C360.23 597.25 360.22 596.79 360.19 596.52C360.14 596.17 360.1 596.01 360.03 595.97C359.98 595.94 359.85 595.86 359.75 595.8C359.56 595.69 359.56 595.68 359.59 595.39C359.61 595.23 359.56 594.78 359.49 594.39C359.42 594 359.34 593.42 359.32 593.1C359.29 592.78 359.23 592.24 359.18 591.9C359.13 591.52 359.04 591.17 358.95 590.98C358.87 590.82 358.72 590.54 358.61 590.37C358.5 590.19 358.39 589.95 358.37 589.83C358.34 589.71 358.19 589.41 358.02 589.16C357.74 588.74 357.69 588.6 356.88 585.6L357.01 584.8C357.13 584.09 357.13 583.99 357.01 583.88C356.93 583.82 356.74 583.78 356.25 583.84L355.79 582.19L355.92 581.54C355.99 581.19 356.04 580.83 356.02 580.76C356.01 580.68 355.85 580.58 355.31 580.4L355.14 579.8C354.98 579.2 354.98 579.19 355.17 578.8C355.36 578.43 355.4 578.4 355.78 578.37C356.04 578.35 356.3 578.39 356.5 578.49C356.79 578.64 356.87 578.64 357.59 578.48C358.02 578.39 358.53 578.22 358.73 578.11C358.93 578 359.42 577.84 359.82 577.77C360.37 577.66 360.54 577.65 360.55 577.74C360.56 577.81 360.54 577.86 360.5 577.86C360.46 577.87 360.44 577.9 360.45 577.94C360.45 577.97 360.62 578.11 360.81 578.25C361.12 578.47 361.2 578.49 361.64 578.43C361.91 578.4 362.15 578.4 362.17 578.44C362.2 578.48 362.32 578.53 362.44 578.55C362.63 578.59 362.66 578.56 362.67 578.36C362.68 578.23 362.75 578.1 362.83 578.06C362.91 578.03 363.27 577.94 363.62 577.86C363.97 577.79 364.42 577.63 364.61 577.51C364.82 577.38 365.12 577.28 365.38 577.26C365.73 577.22 365.82 577.18 365.91 577C365.96 576.89 365.99 576.74 365.96 576.68C365.93 576.61 365.99 576.57 366.12 576.56C366.23 576.55 366.78 576.46 367.34 576.36C367.89 576.27 368.45 576.16 368.58 576.12C368.79 576.07 368.86 576.1 369.04 576.3C369.22 576.49 369.33 576.53 369.72 576.55C370.1 576.58 370.28 576.53 370.74 576.33C371.25 576.1 371.43 576.07 372.71 575.97C373.58 575.91 374.22 575.9 374.4 575.95C374.56 576 374.72 576.07 374.76 576.11C374.8 576.14 374.98 576.16 375.17 576.14C375.36 576.12 375.73 576.03 375.99 575.94C376.26 575.84 376.73 575.69 377.05 575.6C377.36 575.5 378.17 575.26 378.84 575.07C379.51 574.87 380.26 574.63 380.52 574.54C380.78 574.45 381.24 574.34 381.54 574.29C381.85 574.24 382.45 574.11 382.87 573.99C383.38 573.85 383.63 573.75 383.62 573.68C383.62 573.62 384.22 574.38 384.29 574.35C384.36 574.32 389.33 591.79 388.77 591.93ZM382.74 571.78C382.72 571.8 382.65 572.09 382.44 573.06L382.17 573.08C382.03 573.09 381.91 573.08 381.9 573.06C381.9 573.03 382.16 571.97 382.47 570.68C382.79 569.38 382.76 571.77 382.74 571.78ZM379.92 568.61C380.31 568.58 380.56 568.6 380.71 568.69C380.84 568.76 380.98 568.93 381.04 569.08C381.09 569.23 381.15 569.52 381.16 569.73C381.17 569.96 381.14 570.2 381.08 570.33C380.98 570.54 380.99 570.55 381.19 570.75C381.3 570.86 381.44 571.11 381.51 571.32C381.58 571.54 381.61 571.8 381.6 571.99C381.58 572.16 381.53 572.43 381.47 572.59C381.41 572.75 381.25 572.96 381.12 573.07C380.93 573.21 380.61 573.3 379.71 573.46C379.07 573.57 378.53 573.67 378.52 573.66C378.52 573.66 378.4 572.63 378.25 571.35C378.11 570.06 378 568.96 378.02 568.93C378.03 568.9 378.34 568.82 378.7 568.76C379.06 568.7 379.61 568.63 379.92 568.61ZM378.66 569.56C378.64 569.6 378.65 569.85 378.68 570.12L378.75 570.62C380.07 570.42 380.41 570.32 380.5 570.24C380.59 570.14 380.62 570.01 380.61 569.79C380.6 569.56 380.56 569.45 380.47 569.39C380.4 569.34 380.18 569.32 379.99 569.34C379.8 569.36 379.43 569.4 379.17 569.43C378.92 569.47 378.69 569.52 378.66 569.56ZM379.11 571.32L378.79 571.39C378.92 572.51 378.96 572.84 378.97 572.85C378.97 572.86 379.36 572.8 379.82 572.72C380.28 572.64 380.72 572.56 380.79 572.53C380.86 572.5 380.96 572.35 381.01 572.19C381.06 572.01 381.07 571.8 381.04 571.66C381.02 571.52 380.94 571.34 380.86 571.25C380.76 571.11 380.66 571.09 380.39 571.12C380.2 571.14 379.9 571.18 379.74 571.2C379.57 571.23 379.29 571.28 379.11 571.32ZM377.3 568.93C377.63 568.9 377.64 568.9 377.68 569.19C377.7 569.36 377.71 569.52 377.7 569.56C377.69 569.6 377.37 569.67 376.3 569.8L376.37 570.28C376.41 570.54 376.52 571.47 376.62 572.33C376.72 573.18 376.79 573.88 376.78 573.89C376.77 573.9 376.66 573.93 376.27 574L375.76 569.91L374.33 570.1L374.26 569.35L374.57 569.33C374.74 569.31 375.35 569.22 375.93 569.13C376.5 569.03 377.12 568.94 377.3 568.93ZM374.08 569.44C374.12 569.45 374.16 569.62 374.2 570.15L372.99 570.34C372.32 570.44 371.71 570.53 371.65 570.53C371.55 570.54 371.54 570.62 371.69 571.7L372.37 571.63C372.75 571.59 373.15 571.53 373.26 571.5C373.47 571.45 373.47 571.45 373.52 571.82C373.55 572.03 373.55 572.21 373.51 572.23C373.48 572.25 373.08 572.31 371.8 572.47L371.92 573.22C371.99 573.63 372.04 573.97 372.05 573.98C372.05 573.99 372.65 573.89 373.37 573.77C374.08 573.65 374.7 573.54 374.74 573.54C374.78 573.54 374.85 573.68 374.88 573.86C374.91 574.04 374.93 574.2 374.93 574.22C374.92 574.23 374.18 574.37 373.28 574.53C372.37 574.69 371.61 574.81 371.6 574.81C371.59 574.81 371.42 573.74 371.21 572.42C370.99 571.08 370.83 569.94 370.84 569.91C370.86 569.89 371.58 569.76 372.45 569.64C373.31 569.51 374.04 569.42 374.08 569.44ZM369.44 570.09L370.16 570.05L369 572.05L370.09 573.47C371 574.64 371.14 574.85 371.04 574.91C370.97 574.95 370.84 574.99 370.74 575C370.59 575.02 370.41 574.84 368.63 572.58L368.09 573.52L368.41 575.37L368.13 575.43C367.97 575.45 367.84 575.48 367.83 575.47C367.82 575.47 367.62 574.4 367.38 573.08C367.13 571.74 366.94 570.6 366.96 570.58C366.97 570.55 367.11 570.51 367.53 570.43L367.72 571.47C367.82 572.04 367.92 572.51 367.94 572.52C367.96 572.53 368.3 571.99 368.71 571.32L369.44 570.09ZM364.22 570.77C364.57 570.75 364.92 570.79 365.24 570.9C365.51 570.99 365.79 571.11 365.86 571.18C366 571.29 366 571.31 365.91 571.61C365.84 571.84 365.78 571.91 365.68 571.87C365.61 571.84 365.38 571.75 365.17 571.67C364.96 571.58 364.6 571.53 364.34 571.54C364.04 571.56 363.8 571.63 363.66 571.75C363.54 571.85 363.42 572 363.4 572.08C363.37 572.16 363.39 572.34 363.44 572.48C363.49 572.64 363.59 572.76 363.69 572.8C363.78 572.83 364.24 572.83 364.7 572.8C365.45 572.76 365.58 572.78 365.92 572.96C366.12 573.08 366.37 573.27 366.45 573.4C366.54 573.52 366.66 573.83 366.71 574.08C366.78 574.41 366.78 574.62 366.73 574.86C366.68 575.03 366.56 575.3 366.44 575.45C366.33 575.6 366.05 575.8 365.82 575.91C365.53 576.03 365.26 576.09 364.95 576.08C364.7 576.07 364.28 576 364.01 575.92C363.75 575.83 363.47 575.72 363.39 575.66C363.24 575.56 363.24 575.53 363.3 575.24C363.34 575.07 363.39 574.93 363.42 574.93C363.45 574.93 363.69 575.02 363.96 575.14C364.34 575.29 364.58 575.33 365.01 575.31C365.48 575.28 365.6 575.24 365.82 575.02C365.97 574.87 366.09 574.67 366.11 574.49C366.14 574.29 366.12 574.15 366.04 573.99C365.98 573.86 365.84 573.71 365.72 573.65C365.59 573.57 365.21 573.54 364.64 573.56C364.16 573.58 363.66 573.56 363.53 573.51C363.41 573.47 363.21 573.33 363.09 573.2C362.91 573 362.86 572.87 362.79 572.41C362.71 571.94 362.72 571.8 362.83 571.58C362.91 571.43 363.05 571.24 363.15 571.15C363.25 571.06 363.41 570.95 363.51 570.9C363.61 570.85 363.93 570.79 364.22 570.77ZM360.13 571.49C360.26 571.48 360.58 571.93 361.81 573.86C362.63 575.13 363.27 576.19 363.26 576.24C363.25 576.3 363.12 576.35 362.98 576.36C362.73 576.38 362.69 576.35 361.95 575.21L361 575.35C360.47 575.43 360.03 575.51 360.01 575.52C359.99 575.54 359.94 575.85 359.82 576.9L359.5 576.93C359.32 576.94 359.17 576.93 359.16 576.91C359.16 576.88 359.32 575.73 359.51 574.34C359.71 572.93 359.9 571.7 359.93 571.63C359.95 571.56 360.04 571.5 360.13 571.49ZM360.22 574L360.1 574.8C361.17 574.63 361.49 574.57 361.5 574.56C361.51 574.56 361.29 574.17 361.02 573.7C360.75 573.23 360.48 572.85 360.44 572.85C360.39 572.85 360.35 572.93 360.35 573.02C360.35 573.12 360.29 573.56 360.22 574ZM355.97 572.16C356.44 572.12 356.76 572.14 356.96 572.23C357.13 572.31 357.33 572.49 357.42 572.65C357.52 572.81 357.63 573.12 357.67 573.35C357.72 573.59 357.72 573.86 357.67 574C357.58 574.23 357.58 574.24 357.86 574.44C358.02 574.56 358.23 574.83 358.34 575.05C358.46 575.29 358.54 575.57 358.55 575.78C358.56 575.96 358.53 576.25 358.48 576.42C358.43 576.6 358.28 576.83 358.12 576.94C357.91 577.1 357.53 577.21 356.44 577.4C355.66 577.54 355.01 577.65 355 577.64C354.99 577.64 354.69 576.53 354.32 575.16C353.94 573.77 353.64 572.58 353.65 572.54C353.67 572.51 354.04 572.42 354.47 572.35C354.91 572.28 355.58 572.19 355.97 572.16ZM354.55 573.21C354.53 573.25 354.58 573.53 354.67 573.82L354.83 574.36C356.43 574.11 356.84 574 356.93 573.91C357.03 573.8 357.05 573.67 357 573.42C356.96 573.18 356.89 573.05 356.77 572.99C356.67 572.94 356.4 572.92 356.17 572.95C355.93 572.98 355.48 573.03 355.17 573.07C354.86 573.11 354.58 573.17 354.55 573.21ZM355.38 575.1L354.99 575.19C355.32 576.39 355.42 576.75 355.43 576.76C355.44 576.77 355.91 576.7 356.47 576.6C357.03 576.51 357.55 576.4 357.64 576.37C357.73 576.34 357.82 576.17 357.85 576C357.89 575.8 357.88 575.58 357.82 575.43C357.77 575.28 357.64 575.09 357.54 574.99C357.39 574.85 357.27 574.82 356.93 574.86C356.69 574.89 356.34 574.93 356.13 574.96C355.93 575 355.59 575.06 355.38 575.1Z" />
		<path id="tattoo-07-02" class="tattoo-07-02" d="M386.11 579.95C385.29 583.88 384.6 586.43 384.54 586.44C384.49 586.44 383.81 584.88 382.5 581.74L380.36 576.62C379.8 576.74 378.54 576.99 377.2 577.25C375.84 577.51 374.65 577.73 374.58 577.74C374.45 577.75 374.44 577.79 374.48 578.24C374.51 578.5 374.58 579.09 374.65 579.53L374.76 580.34C375.77 580.19 376.06 580.15 376.06 580.15C376.06 580.15 376.32 582.25 376.64 584.74C376.95 587.15 377.27 589.69 377.37 590.46C377.47 591.21 377.54 591.84 377.52 591.87C377.51 591.89 377.25 591.99 376.94 592.09L376.37 592.27C376.5 593.17 376.57 593.61 376.6 593.82C376.66 594.17 376.67 594.2 376.78 594.18C376.85 594.16 377.96 593.87 379.24 593.53L381.52 592.92C381.46 592.15 381.42 591.72 381.39 591.47L381.34 591.01C379.85 591.25 379.85 591.25 379.84 591.1C379.83 591.01 379.66 589.29 379.46 587.23C379.25 585.1 379.04 583.17 379.02 582.99C378.97 582.72 378.98 582.66 379.07 582.65C379.14 582.64 379.44 583.25 380.2 584.95C380.75 586.18 381.45 587.71 381.78 588.38C382.09 589.03 382.57 590 382.85 590.53C383.11 591.05 383.35 591.5 383.37 591.53C383.4 591.57 383.65 591.53 384.13 591.4C384.51 591.29 384.9 591.18 385 591.17C385.15 591.14 385.17 591.1 385.28 590.73C385.35 590.5 385.64 589.41 385.94 588.28C386.24 587.14 386.06 585.88 386.29 584.92C386.52 583.95 387.37 584.93 387.49 586.62C387.61 588.26 387.77 589.19 387.77 589.19C387.76 589.2 388.08 589.21 387.76 589.31L387.19 589.49C387.27 590.93 387.29 591.35 387.29 591.36C387.3 591.37 387 591.26 388.4 590.89C388.69 589.33 386.99 581.01 386.11 579.95ZM368.13 578.67C367.99 578.7 367.55 578.81 367.16 578.92C366.77 579.03 366.1 579.28 365.66 579.47C365.22 579.66 364.61 579.97 364.3 580.16C363.99 580.35 363.47 580.71 363.16 580.98C362.84 581.24 362.37 581.7 362.12 581.99C361.87 582.29 361.45 582.91 361.18 583.37C360.91 583.83 360.58 584.5 360.45 584.87C360.32 585.24 360.16 585.79 360.09 586.1C360.02 586.41 359.95 586.97 359.92 587.34C359.89 587.71 359.88 588.36 359.91 588.78C359.94 589.2 360.01 589.78 360.07 590.06C360.12 590.34 360.28 590.89 360.41 591.29C360.54 591.68 360.8 592.29 360.98 592.65C361.17 593 361.47 593.49 361.66 593.74C361.84 593.98 362.19 594.37 362.44 594.61C362.68 594.85 363.15 595.22 363.48 595.43C363.81 595.64 364.34 595.91 364.65 596.03C364.97 596.15 365.5 596.3 365.84 596.36C366.17 596.42 366.67 596.48 366.94 596.49C367.21 596.5 367.78 596.49 368.21 596.46C368.68 596.42 369.34 596.32 369.88 596.2C370.37 596.09 371 595.93 371.28 595.84C371.56 595.75 372.02 595.59 372.31 595.47C372.6 595.36 373.06 595.16 373.34 595.02C373.62 594.88 374.03 594.64 374.26 594.48C374.48 594.33 374.7 594.17 374.73 594.14C374.79 594.09 374.74 593.65 374.47 591.82C374.29 590.55 374.15 589.47 374.16 589.44C374.18 589.42 374.4 589.32 374.67 589.23L375.14 589.07C375.07 588.45 375 587.96 374.95 587.58C374.87 586.99 374.84 586.9 374.76 586.91C374.7 586.92 373.18 587.27 371.36 587.69C369.52 588.12 367.98 588.49 367.97 588.49C367.96 588.5 368.05 589.02 368.16 589.63L368.36 590.73C369.79 590.45 370.2 590.37 370.2 590.38C370.21 590.39 370.35 591.14 370.52 592.03C370.69 592.9 370.83 593.66 370.82 593.71C370.82 593.76 370.75 593.83 370.66 593.88C370.58 593.92 370.22 594 369.86 594.06C369.31 594.14 369.13 594.14 368.68 594.03C368.38 593.97 367.93 593.79 367.67 593.65C367.41 593.51 367.01 593.21 366.77 592.98C366.5 592.73 366.2 592.35 365.97 591.96C365.76 591.61 365.49 591.08 365.37 590.78C365.26 590.48 365.07 589.84 364.95 589.36C364.83 588.84 364.72 588.19 364.68 587.77C364.65 587.37 364.63 586.8 364.63 586.5C364.64 586.2 364.69 585.71 364.74 585.42C364.79 585.13 364.91 584.66 365 584.37C365.09 584.08 365.33 583.59 365.52 583.28C365.76 582.89 366.03 582.59 366.37 582.33C366.64 582.12 367.01 581.88 367.2 581.79C367.39 581.71 367.82 581.61 368.16 581.58C368.57 581.53 368.88 581.54 369.1 581.61C369.29 581.67 369.5 581.78 369.57 581.86C369.64 581.93 369.94 582.62 370.22 583.38C370.5 584.13 370.76 584.76 370.79 584.78C370.81 584.8 371.38 584.64 372.03 584.41C372.69 584.18 373.23 583.99 373.25 583.99C373.26 583.98 373.18 583.48 373.05 582.86C372.93 582.24 372.67 581.04 372.49 580.19L372.15 578.61C371.7 578.51 371.27 578.46 370.9 578.44C370.54 578.42 369.82 578.45 369.32 578.51C368.81 578.56 368.27 578.63 368.13 578.67Z" />
	</g>
</svg>