<svg xmlns="http://www.w3.org/2000/svg" viewBox="0 0 400 600" width="400" height="600">
	<style>
		tspan { white-space:pre }
		.tattoo-01 { opacity: 0.749;mix-blend-mode: multiply;fill: #000000 } 
	</style>
	<path id="tattoo-01" fill-rule="evenodd" class="tattoo-01" d="M328.19 532.07C328.45 532.07 328.86 532.15 329.09 532.25C329.32 532.34 329.67 532.58 329.86 532.77C330.21 533.11 330.25 533.11 330.5 532.88C330.64 532.74 335.18 543.39 335.21 544.03C335.25 544.7 335.16 546.28 334.95 550.3L336.33 552.1C337.16 553.18 338 554.15 338.13 554.19C338.27 554.22 338.35 553.92 338.33 553.51C338.31 553.12 338.45 553.02 338.64 553.28C338.83 553.54 339.14 555.63 340.77 563.66L337.32 559.11C335.76 557.01 334.4 555.43 334.14 555.39C333.87 555.35 328.26 554.11 328.13 554.1C327.99 554.09 327.7 554.57 327.48 555.17C327.26 555.78 327.02 556.09 326.94 555.84C326.87 555.59 327.1 553.54 327.54 551.45C328.39 548.38 328.54 548.14 328.97 548.74C329.42 549.35 329.48 549.35 329.53 548.76C329.56 548.4 329.47 547.5 329.34 546.78C329.23 546.09 328.95 545.09 328.72 544.55C328.5 544.03 327.75 542.82 327.08 541.9C326 540.43 325.94 540.38 325.62 540.83C325.3 541.31 325.3 541.38 325.65 542.36C325.87 542.95 326.17 543.46 326.31 543.46C326.45 543.46 326.85 543.87 327.21 544.37C327.59 544.91 327.94 545.74 328.01 546.27C328.09 546.8 328.08 547.47 327.99 547.75C327.89 548.04 327.59 548.26 327.31 548.26C327.03 548.25 326.74 548.11 326.67 547.93C326.6 547.76 326.74 547.63 327 547.63C327.27 547.63 327.43 547.34 327.41 546.94C327.38 546.48 327.06 546.01 326.44 545.51C325.94 545.12 325.37 544.46 325.17 544.04C324.98 543.64 324.81 542.96 324.8 542.53C324.79 542.11 324.98 541.33 325.67 539.86L325.23 538.59C324.94 537.69 324.88 537.08 324.98 536.03C325.06 535.32 325.21 534.54 325.31 534.27C325.4 534 325.79 533.47 326.15 533.09C326.5 532.73 327 532.36 327.25 532.25C327.5 532.15 327.92 532.07 328.19 532.07ZM327 533.11C326.88 533.25 326.75 533.76 326.71 534.26C326.67 534.88 326.75 535.52 326.96 536.07C327.15 536.55 327.93 537.71 328.72 538.69C330.01 540.28 330.38 540.91 330.79 542.24C331.17 543.4 331.39 544.41 331.44 545.24C331.49 545.96 331.5 547.24 331.47 548.1C331.46 549 331.31 550.01 331.12 550.3C330.79 550.82 330.78 550.78 330.98 549.47C331.1 548.76 331.18 547.43 331.15 546.55C331.15 545.71 331 544.33 330.83 543.5C330.68 542.71 330.38 541.71 330.16 541.27C329.94 540.84 329.71 540.56 329.63 540.64C329.56 540.72 329.68 541.45 329.92 542.31C330.31 543.68 330.4 544.25 330.39 545.57C330.41 546.51 330.32 547.94 330.18 548.71L329.95 550.22C331.96 553.09 332.79 554.05 332.98 554.08C333.18 554.1 333.41 552.44 333.58 550.55L334.1 547.53C333.14 543.67 330.24 538.17 330.07 537.66C329.89 537.1 329.65 536.76 329.44 536.71C329.26 536.67 328.93 536.6 328.71 536.54C328.48 536.48 328.19 536.13 328.02 535.73C327.76 535.12 327.76 535.01 328 534.58C328.14 534.33 328.38 534.1 328.53 534.06C328.72 534.01 328.8 533.85 328.78 533.6C328.75 533.31 328.65 533.24 328.35 533.27C328.03 533.3 327.99 533.27 328.16 533.1C328.31 532.95 328.47 532.95 328.78 533.08C329.06 533.19 329.23 533.39 329.27 533.66C329.3 533.9 329.18 534.3 328.99 534.56C328.81 534.83 328.65 535.21 328.65 535.39C328.65 535.58 328.75 535.85 328.87 535.99C329 536.13 329.21 536.25 329.36 536.26C329.55 536.26 329.67 535.83 329.8 534.77C329.9 534.02 329.93 533.31 329.86 533.15C329.8 533 329.5 532.76 329.2 532.62C328.91 532.48 328.52 532.37 328.33 532.36C328.14 532.36 327.82 532.47 327.6 532.61C327.38 532.75 327.11 532.98 327 533.11ZM322.39 532.48C322.7 532.47 322.87 532.49 322.76 532.53C322.64 532.57 322.52 532.71 322.48 532.83C322.44 532.96 322.61 533.2 322.85 533.36C323.11 533.53 323.35 533.82 323.4 534.01C323.45 534.2 323.44 534.6 323.38 534.9C323.32 535.23 323.07 535.71 322.25 536.63L322.72 536.88C322.98 537.01 323.37 537.54 323.58 538.06C323.99 539.01 324 539.19 323.9 542.53C324.09 546.67 324.09 546.93 323.71 549.61C323.55 551.3 323.18 553.92 322.86 555.37C322.53 557.11 322 558.48 321.38 558.99C320.72 559.52 319.88 559.6 318.86 559.26C318.03 559 316.73 558.26 315.99 557.64C315.28 557.05 314.17 555.75 313.55 554.77C312.97 553.83 312.26 552.14 311.98 551.02C311.73 549.93 311.53 547.91 311.54 546.55C311.61 544.74 311.84 543.54 312.55 541.26C313.07 539.79 313.81 538.14 314.19 537.51C314.56 536.9 315.11 536.13 315.4 535.79C315.69 535.46 316.31 534.89 316.77 534.54C317.22 534.2 317.86 533.85 318.2 533.76C318.63 533.64 318.9 533.66 319.13 533.83C319.33 533.97 319.63 534.02 319.86 533.94C320.08 533.87 320.62 533.5 321.06 533.13C321.7 532.6 321.91 532.5 322.39 532.48ZM316.48 535.71C315.69 536.81 315.4 537.39 314.75 539.35C314.34 540.78 313.98 542.72 313.93 543.59C313.9 544.5 314.05 545.67 314.26 546.17C314.58 546.91 314.87 547.1 315.58 547.04C316.35 546.98 316.55 546.8 317 545.77C317.38 544.94 317.52 544.31 317.52 543.5C317.53 542.91 317.37 542.05 317.18 541.6C316.99 541.15 316.68 540.4 316.5 539.93C316.28 539.31 316.28 538.77 316.51 537.8C316.78 536.81 316.97 536.43 317.55 535.74C317.93 535.3 318.44 534.81 318.67 534.65C318.9 534.48 319.08 534.26 319.07 534.15C319.06 534.03 318.84 533.96 318.6 533.98C318.35 534.01 317.98 534.13 317.77 534.27C317.56 534.4 316.98 535.04 316.48 535.71ZM319.2 535C318.99 535.42 318.9 535.82 318.95 536.21C318.99 536.54 319.22 537.18 319.46 537.65L319.93 538.54C320.43 535.9 320.51 535.7 320.78 535.64C321.05 535.58 321.05 535.69 320.75 536.55L320.41 537.59C321.15 536.87 321.4 536.46 321.45 536.2C321.52 535.91 321.36 535.54 321.02 535.2C320.74 534.91 320.53 534.52 320.55 534.33C320.57 534.14 320.5 533.99 320.38 534C320.27 534.01 320.04 534.11 319.86 534.22C319.68 534.32 319.38 534.67 319.2 535ZM319.84 542.82C319.74 544.81 319.81 546.92 319.92 547.34C320.06 547.82 320.91 553.48 321.35 553.24C321.78 552.99 322.36 552.02 322.64 551.1C323.1 549.72 323.14 549.19 322.94 547.34C322.87 546.24 322.71 544.8 322.58 544.11C322.47 543.44 322.1 542.34 321.78 541.68C321.47 541.04 320.99 540.33 320.7 540.09L320.19 539.67L319.84 542.82ZM315.96 547.57C315.1 547.63 314.39 547.77 314.37 547.88C314.36 547.98 314.72 548.77 315.21 549.66C315.74 550.6 318.65 547.91 318.88 547.5C319.04 547.22 319.12 546.63 319.08 546.19C319 545.43 319 545.43 318.26 546.42C317.61 547.32 317.3 547.47 315.96 547.57ZM319.84 547.73C319.83 547.62 319.73 547.54 319.61 547.54C319.48 547.55 319.39 547.73 319.39 547.94C319.4 548.16 319.84 547.83 319.84 547.73ZM313.22 533.68C313.51 533.62 313.46 533.67 312.94 533.92C312.57 534.1 312.22 534.37 312.1 534.56C311.98 534.76 312.07 534.99 312.34 535.16C312.58 535.32 312.82 535.71 312.88 536.04C312.98 536.56 312.92 536.81 312.5 537.53C312.17 538.12 311.69 538.72 310.12 540.17L310.71 540.72C311.11 541.09 311.31 541.63 311.3 542.31C311.3 542.89 311.17 543.87 311.02 544.48C310.87 545.11 310.29 546.5 309.74 547.6C309.36 548.36 308.57 544.28 308.08 540.55C308.28 540.52 308.5 540.39 308.84 540.13C309.36 539.73 309.62 539.4 309.89 538.77C310.15 538.19 310.18 537.84 309.99 537.44C309.85 537.16 309.66 536.95 309.55 536.97C309.45 536.99 309.38 536.77 309.4 536.48C309.41 536.2 309.51 535.82 309.61 535.63C309.75 535.35 309.7 535.33 309.33 535.53C309.08 535.67 308.47 536.13 307.97 536.57C307.9 536.64 307.84 536.69 307.78 536.75C307.77 536.96 307.76 537.17 307.75 537.4C307.73 537.19 307.72 536.99 307.71 536.81C307.23 537.23 307.19 537.24 307.47 536.89C307.53 536.81 307.61 536.73 307.7 536.63C307.65 535.63 307.69 534.97 307.86 534.93C307.86 534.93 307.83 535.62 307.79 536.55C308.02 536.32 308.31 536.06 308.55 535.88C308.91 535.61 309.51 535.2 309.88 534.98C310.25 534.77 311.08 534.39 311.72 534.15C312.35 533.92 313.02 533.71 313.22 533.68ZM307.73 540.51C307.71 540.5 307.7 540.49 307.69 540.49C307.65 540.84 307.62 541.1 307.61 541.13C307.6 541.14 307.61 540.88 307.62 540.46C307.46 540.36 307.35 540.22 307.37 540.12C307.38 540.03 307.5 539.9 307.65 539.78C307.68 539.08 307.71 538.21 307.75 537.4C307.79 537.91 307.84 538.48 307.91 539.07C307.86 539.25 307.82 539.46 307.79 539.68C307.82 539.66 307.86 539.64 307.89 539.63C307.92 539.61 307.94 539.6 307.96 539.58C308 539.9 308.04 540.22 308.08 540.55C307.96 540.57 307.85 540.56 307.73 540.51ZM307.96 539.58C307.94 539.41 307.92 539.24 307.91 539.07C307.97 538.82 308.05 538.64 308.14 538.63C308.46 538.6 308.6 538.72 308.51 538.97C308.44 539.18 308.21 539.43 307.96 539.58ZM307.79 536.55C307.76 536.58 307.73 536.6 307.7 536.63C307.7 536.69 307.71 536.75 307.71 536.81C307.73 536.79 307.75 536.77 307.78 536.75C307.78 536.68 307.78 536.61 307.79 536.55ZM307.79 539.68C307.74 539.72 307.69 539.75 307.65 539.78C307.64 540.03 307.63 540.26 307.62 540.46C307.64 540.47 307.66 540.48 307.69 540.49C307.71 540.24 307.75 539.96 307.79 539.68ZM338.55 543.11C339.15 545.96 340.21 549.5 340.6 550.41C341.03 551.39 341.72 552.65 342.1 553.19C342.74 554.09 342.8 554 342.66 552.46C342.6 550.93 342.61 550.92 343.09 552.14C343.4 552.92 343.89 554.98 344.37 557.24C345 559.62 346.06 562.73 347.67 566.27L344.73 562.52C343.3 560.71 341.56 558.21 340.8 556.91C340.02 555.52 338.43 551.77 337.11 547.58C336.09 543.05 337.95 539.13 338.55 543.11ZM369.22 553.66C371.84 556.32 373.19 558.73 373.62 561.5C373.96 563.7 374.04 566.17 373.8 567C373.52 567.97 371.93 566.36 369.32 562.5C367.1 559.2 364.99 555.49 364.64 554.25C364.29 553.01 364.32 551.51 364.72 550.91C365.17 550.22 366.83 551.24 369.22 553.66ZM358.42 553.97C359.56 553.96 361.49 554.97 362.69 556.22C363.89 557.48 366.03 561.09 367.44 564.25C368.85 567.41 369.77 570.34 369.49 570.75C369.21 571.16 367.13 570.6 364.85 569.5C362.58 568.4 359.43 566.04 357.86 564.25C356.29 562.46 354.93 559.73 354.83 558.17C354.74 556.61 355.04 555.03 355.5 554.67C355.96 554.3 357.27 553.99 358.42 553.97ZM354.11 567C355.95 567 358.05 568.13 361.27 570.91C361.91 571.13 362.58 571.37 363.25 571.61C367.19 573.03 371.2 574.91 372.24 575.83C372.44 575.41 372.81 575.26 373.2 575.5C373.75 575.84 374.16 576.77 374.1 577.56C374.08 577.87 373.99 578.12 373.86 578.3C373.97 578.64 374.04 578.97 374.03 579.25C374.01 580.21 373.21 581.27 372.25 581.6C371.19 581.96 369.11 581.17 367 579.61C366.89 579.53 366.78 579.45 366.66 579.36C366.06 579.75 365.31 580.15 364.5 580.5C363.44 580.95 362.08 581.36 360.79 581.64C360.87 581.76 360.94 581.88 361 582C361.5 582.99 361.73 584.37 361.57 585.24C362.26 585.22 362.97 585.23 363.65 585.26C365.71 585.35 367.69 585.62 368.8 585.91C370.21 584.85 371.7 584 372.15 584C372.62 584 373.51 585.01 374.13 586.25C374.29 586.58 374.43 586.94 374.53 587.32C374.7 587.15 374.9 587.09 375.12 587.17C375.6 587.35 376.11 587.91 376.25 588.42C376.39 588.92 375.94 589.48 375.25 589.67C375.07 589.71 374.91 589.71 374.76 589.67C374.73 589.88 374.69 590.08 374.63 590.25C374.28 591.21 370.62 593.69 366.48 595.75C366.42 595.78 366.37 595.81 366.31 595.84C365.56 596.96 364.77 598 364.06 598.75C362.38 600.54 360.21 602.01 359.25 602.03C358.29 602.05 356.73 601.26 355.8 600.28C354.86 599.3 353.61 597.15 353.01 595.5C352.2 593.26 352.23 591.79 353.15 589.72C353.75 588.37 354.98 586.9 356.04 586.21C355.6 585.88 355.24 585.47 355 585C354.31 583.63 354.35 582.53 355.11 581.5C355.14 581.46 355.17 581.42 355.21 581.38C354.19 580.97 353.2 580.4 352.47 579.75C351.07 578.51 349.61 575.86 349.22 573.85C348.72 571.33 348.92 569.71 349.86 568.6C350.61 567.72 352.52 567 354.11 567ZM378.05 572C378.22 572 378.38 572.07 378.52 572.2C378.54 571.87 378.59 571.54 378.66 571.25C378.95 570.01 379.6 569 380.1 569C380.59 569 381.23 569.67 381.5 570.5C381.77 571.33 382 573.13 382 574.5C382 575.88 381.55 577 381 577C380.45 577 379.58 576.21 379.06 575.25C378.97 575.08 378.89 574.88 378.82 574.66C378.73 574.87 378.62 575 378.5 575C378.23 575 377.8 574.33 377.55 573.5C377.3 572.67 377.52 572 378.05 572ZM378.48 578C379.31 578 380.45 579.13 381 580.5C381.55 581.88 381.77 583.67 381.5 584.5C381.35 584.94 381.02 585.34 380.62 585.62C380.61 585.67 380.59 585.71 380.57 585.75C380.11 586.75 379.69 586.75 378.46 585.75C378.27 585.6 378.1 585.41 377.94 585.18C377.52 584.79 377.15 584.29 376.87 583.75C376.25 582.51 376.02 580.71 376.35 579.75C376.68 578.79 377.64 578 378.48 578ZM383.72 581.75C383.3 582.16 382.95 581.83 382.94 581.03C382.75 580.74 382.6 580.39 382.5 580C382.23 578.9 382.29 577.44 382.65 576.75C383.12 575.85 383.68 576.06 384.67 577.5C385.42 578.6 385.87 579.95 385.67 580.5C385.47 581.05 384.78 581.61 384.15 581.75C384.02 581.78 383.88 581.77 383.75 581.72C383.74 581.73 383.73 581.74 383.72 581.75ZM383.2 588.5C383.75 588.84 384.16 589.54 384.1 590.06C384.08 590.26 383.99 590.45 383.86 590.6C384.49 591.6 385.33 593.73 385.87 595.75C386.04 596.38 386.17 596.95 386.26 597.45C386.87 598.19 387.57 599.17 388.26 600.24C389.78 602.58 384 600.65 384 599C384 598.78 384.01 598.57 384.02 598.36C383.67 597.95 383.33 597.49 383 597C381.9 595.35 380.93 593.17 380.83 592.17C380.74 591.16 381.06 590.02 381.55 589.64C381.7 589.53 381.89 589.47 382.1 589.47C382.1 589.46 382.1 589.45 382.1 589.44C382.16 588.58 382.65 588.16 383.2 588.5ZM374.22 594.6C374.46 594.72 374.67 595.47 374.82 596.61C374.82 596.48 374.81 596.34 374.8 596.2C374.69 594.11 375.16 591.9 375.85 591.28C376.54 590.66 377.73 590.39 378.51 590.69C379.28 590.98 379.92 592.18 379.94 593.36C379.96 594.54 379.75 596.51 379.49 597.75C379.18 599.17 378.26 600 377 600C375.77 600 375.23 599.58 374.97 598.02C375.07 599.26 375.12 600.75 375.1 602.31C375.02 607.61 364.7 606.31 365.55 604.25C366.4 602.19 368.48 599.06 370.17 597.29C371.85 595.52 373.67 594.31 374.22 594.6ZM380.12 597.74C380.46 598.16 381.47 600.75 382.38 603.5C383.28 606.25 377.27 604.36 378.06 601.74C378.85 599.12 379.78 597.32 380.12 597.74ZM374.72 562.25C375.15 562.66 375.15 563.34 374.72 563.75C374.29 564.16 373.94 563.83 373.94 563C373.94 562.17 374.29 561.84 374.72 562.25ZM373.55 568.5C374.37 569.6 375.05 570.95 375.06 571.5C375.08 572.05 374.37 571.83 373.5 571C372.63 570.17 371.95 568.83 371.99 568C372.04 566.87 372.43 566.99 373.55 568.5ZM384.8 583.98C385.18 583.97 386.07 584.54 386.77 585.23C387.46 585.93 388.03 587.29 388.02 588.25C388 589.59 387.52 589.82 385.98 589.25C384.86 588.84 383.74 587.94 383.48 587.25C383.21 586.56 383.25 585.55 383.55 585C383.85 584.45 384.41 583.99 384.8 583.98ZM388.72 594.25C389.15 594.66 389.15 595.34 388.72 595.75C388.29 596.16 387.94 595.83 387.94 595C387.94 594.17 388.29 593.84 388.72 594.25ZM21.04 569.81C21.1 569.8 21.58 570.26 22.12 570.85C22.66 571.48 23.53 572.18 24.05 572.38C24.58 572.6 24.96 572.9 24.9 573.04C24.83 573.18 24.24 573.63 22.47 574.74L20.57 579.02C19.16 582.59 19.09 582.87 19.42 583.21C19.62 583.41 19.74 583.7 19.69 583.83C19.64 583.97 19.25 583.99 18.83 583.87C18.42 583.75 17.64 583.73 17.11 583.81C16.59 583.9 15.76 584.3 14.41 585.4L12.98 583.64C12.25 582.74 17.1 572.78 18.24 571.97C19.45 571.1 20.59 570.23 20.71 570.09C20.83 569.94 20.98 569.82 21.04 569.81ZM15.57 577.59C14.47 580.82 14.37 581.32 14.54 581.7C14.65 581.94 15 582.43 15.31 582.8C15.79 583.35 15.97 583.45 16.31 583.31C16.69 583.15 16.85 582.75 18.06 579.23L19.83 574.87C18.56 573.42 18.1 573.04 17.97 573.05C17.84 573.06 17.61 573.16 17.47 573.27C17.33 573.38 16.42 575.39 15.57 577.59ZM31.06 569.83L31.86 571.39C32.34 572.26 33.03 573.19 33.36 573.46C33.84 573.84 34.29 573.85 35.27 573.51C35.99 573.26 37.49 572.38 40.66 569.95L41.59 571.65C42.17 572.56 43.05 573.54 43.54 573.84C44.04 574.13 45.13 574.41 45.97 574.46C47.13 574.53 48.32 574.08 53.6 570.47L52.8 583.86C46.62 590.63 45.69 591.57 45.88 592.25C45.95 592.7 46.59 593.01 47.36 592.92C48.14 592.82 48.97 592.91 49.16 593.13C49.35 593.37 45.97 594.48 36.8 596.56L38 593.9C38.33 592.58 38.4 591.07 38.02 589.5L42.62 587.87L46.33 582.72C47.78 579.95 48.6 577.48 48.45 577.22C48.31 576.97 47.69 576.53 47.1 576.24C46.52 575.95 45.52 575.68 44.88 575.64C44.26 575.6 43.14 575.79 42.4 576.08C41.13 576.56 40.98 576.81 38.65 581.68C35.89 586.38 35.81 586.56 36.6 588.82L34.16 589.8C32.92 590.3 31.61 590.97 31.19 591.31C30.48 591.9 30.45 591.85 29.92 589.82C29.53 588.72 29.02 587.62 28.83 587.32C28.52 586.85 28.64 586.73 31.93 585.33L36.16 576.75L35.15 575.75C34.62 575.2 33.78 574.71 33.27 574.67C32.76 574.62 31.94 574.87 31.43 575.2C30.64 575.71 30.22 576.44 26.45 584.78L27.81 586.45L23.25 588.82L22.98 587.86C22.84 587.33 22.41 586.44 21.39 584.87L23.78 583.25L25.5 579.34C27.5 575.06 27.52 574.99 26.98 574.52C26.52 574.11 26.32 574.13 25.53 574.7C24.82 575.2 24.67 575.23 24.81 574.84C24.91 574.57 26.26 573.42 27.89 572.21L31.06 569.83Z" />
</svg>