<svg xmlns="http://www.w3.org/2000/svg" viewBox="0 0 400 600" width="400" height="600">
	<style>
		tspan { white-space:pre }
		.tattoo-06-i { mix-blend-mode: multiply;fill: #d7d7d7 } 
		.tattoo-06-ii { mix-blend-mode: multiply;fill: #0f0f0f } 
		.tattoo-06-iii { mix-blend-mode: multiply;fill: #4d4d4d } 
	</style>
	<g id="face-tat">
		<path id="tattoo-06-01" class="tattoo-06-i" d="M373.68 561.35C373.58 561.46 372.7 561.49 371.71 561.42C370.42 561.33 369.4 561.45 368.35 561.81C367.5 562.1 366.27 562.65 365.62 563.04C364.96 563.44 364.01 564.1 363.51 564.51C363.01 564.92 362.32 565.8 361.99 566.47C361.66 567.14 361.3 568.07 361.21 568.53C361.11 568.99 361.01 570.01 360.97 570.79C360.94 571.57 360.85 572.98 360.79 573.92C360.72 574.86 360.58 575.82 360.46 576.06C360.35 576.29 359.74 577.56 359.11 578.88C358.13 580.93 357.95 581.62 358.02 583.09C358.07 584.39 357.96 584.97 357.56 585.34C357.27 585.62 356.81 585.78 356.54 585.7C356.11 585.57 356.1 586.15 356.49 590.37C356.73 593.01 357.21 596.33 357.55 597.74C357.88 599.14 358.58 600.99 359.1 601.84C359.68 602.82 360.89 604.02 362.34 605.09C363.57 606 366.05 607.45 367.81 608.3C369.51 609.13 371.22 610.01 371.65 610.28C372.07 610.55 372.86 610.87 373.4 610.99C373.93 611.11 374.69 611.21 375.08 611.22C375.46 611.23 376.79 610.92 378.01 610.54C379.2 610.18 380.47 609.66 380.86 609.38C381.25 609.11 381.99 608.52 382.49 608.06C383 607.61 383.5 606.97 383.63 606.63C383.75 606.3 383.94 606 384.05 605.97C384.15 605.94 385.04 604.83 386 603.53C386.93 602.26 387.77 601.27 387.87 601.3C387.97 601.34 388.02 601.29 388 601.19C387.97 601.1 388.58 600.01 389.35 598.79C390.32 597.25 385.31 579.58 385.14 578.8C385 578.12 376.78 561.9 375.49 561.72C374.17 561.53 373.78 561.25 373.68 561.35Z" />
		<path id="tattoo-06-03" class="tattoo-06-ii" d="M383.18 574.87C383.1 574.99 382.8 575.12 382.52 575.18C382.2 575.24 382.04 575.18 382.11 575.04C382.18 574.88 382.01 574.86 381.62 574.98C381.3 575.08 380.85 575.2 380.62 575.25C380.4 575.3 379.96 575.39 379.65 575.46C379.24 575.54 378.99 575.82 378.79 576.42C378.53 577.19 378.54 577.33 378.91 577.96C379.26 578.57 379.41 578.64 380.14 578.56C380.59 578.52 381.15 578.33 381.39 578.14C381.73 577.88 381.91 577.87 382.28 578.09C382.54 578.24 383.06 578.38 383.43 578.42C383.81 578.45 384.37 578.64 384.69 578.83C385.22 579.16 383.81 575.12 383.64 574.96C383.46 574.77 383.28 574.74 383.18 574.87ZM370.79 574.84C370.73 574.9 369.77 575.02 368.65 575.09C367.5 575.17 366.18 575.35 365.74 575.49C365.29 575.63 364.83 575.66 364.72 575.56C364.6 575.45 364.27 575.68 363.98 576.06C363.68 576.44 363.46 577.01 363.48 577.31C363.5 577.62 363.75 578.24 364.05 578.7C364.39 579.23 364.81 579.51 365.25 579.51C365.61 579.51 366.13 579.59 366.39 579.68C366.66 579.77 367.23 579.72 367.66 579.55C368.09 579.39 368.43 579.17 368.42 579.06C368.42 578.95 368.62 578.83 368.87 578.8C369.11 578.76 369.66 578.69 370.07 578.63C370.49 578.57 370.99 578.42 371.19 578.3C371.39 578.16 371.75 578.18 372.05 578.33C372.32 578.47 372.87 578.69 373.27 578.81C373.68 578.93 374.26 578.92 374.62 578.79C375.2 578.57 375.23 578.48 375.13 577.25L375.02 575.93C373.18 575.27 372.25 575 371.78 574.9C371.3 574.8 370.86 574.77 370.79 574.84ZM367.37 552.3C366.69 552.49 365.47 553.01 364.67 553.45C363.85 553.9 362.84 554.6 362.42 555C362.01 555.41 361.24 556.27 360.71 556.92C360.18 557.58 359.38 558.9 358.92 559.86C358.46 560.83 357.81 562.45 357.49 563.46C357.17 564.48 356.69 566.55 356.42 568.07C356.15 569.6 355.85 572.19 355.75 573.82C355.65 575.46 355.61 578.08 355.66 579.64C355.71 581.56 355.62 582.54 355.35 582.68C355.03 582.85 355.04 582.92 355.37 583.05C355.6 583.14 355.81 583.75 355.84 584.41C355.87 585.2 356.05 585.64 356.38 585.71C356.65 585.77 356.93 585.81 357.01 585.81C357.08 585.8 357.36 585.58 357.62 585.32C357.95 584.98 358.07 584.29 358.02 583.01C357.96 581.47 358.11 580.88 358.95 579.32C359.49 578.31 359.92 577.27 359.9 576.99C359.88 576.72 360.06 576.29 360.31 576.06C360.6 575.78 360.8 574.82 360.87 573.35C360.92 572.1 360.94 570.98 360.9 570.86C360.87 570.74 360.94 570.04 361.08 569.3C361.21 568.57 361.58 567.35 361.9 566.6C362.21 565.86 362.85 564.87 363.31 564.42C363.76 563.97 364.26 563.62 364.41 563.64C364.56 563.66 365.24 563.34 365.9 562.93C366.55 562.52 367.72 561.99 368.48 561.74C369.34 561.47 370.6 561.35 371.79 561.41C372.83 561.47 374.41 561.03 374.45 560.94C374.5 560.84 368.04 552.11 367.37 552.3Z" />
		<path id="tattoo-06-04" class="tattoo-06-iii" d="M366.54 581.75C366.26 582.08 366.15 582.34 366.3 582.33C366.45 582.31 366.73 582.2 366.93 582.08C367.12 581.96 367.23 581.7 367.16 581.51C367.08 581.25 366.91 581.32 366.54 581.75ZM373.03 581.56C373.03 581.7 373.13 581.92 373.27 582.06C373.4 582.19 373.57 582.75 373.66 583.31C373.74 583.86 373.76 584.66 373.69 585.09C373.63 585.51 373.19 586.33 372.72 586.91C372.08 587.68 371.55 588.05 370.79 588.26C370.03 588.46 369.4 588.44 368.55 588.16C367.79 587.92 367.11 587.46 366.72 586.91C366.38 586.42 366.06 585.72 366.02 585.35C365.97 584.98 365.93 584.3 365.92 583.85C365.91 583.4 366.01 583.12 366.13 583.22C366.25 583.33 366.61 583.21 366.94 582.97C367.26 582.72 367.58 582.55 367.66 582.58C367.73 582.61 367.68 583.01 367.55 583.47C367.41 583.92 367.38 584.62 367.48 585.02C367.58 585.42 368.02 586.02 368.47 586.35C368.94 586.69 369.6 586.9 370.04 586.86C370.45 586.82 370.79 586.67 370.78 586.52C370.77 586.38 370.88 586.31 371.02 586.37C371.16 586.43 371.55 586.18 371.87 585.83C372.2 585.48 372.51 584.79 372.56 584.28C372.62 583.78 372.7 583.2 372.75 582.98C372.81 582.7 372.45 582.49 371.42 582.23C370.62 582.03 369.53 581.88 369 581.91C368.46 581.93 367.7 582.11 367.31 582.31C366.91 582.5 366.43 582.65 366.25 582.64C366.06 582.63 365.8 583.09 365.68 583.66C365.54 584.32 365.57 585.06 365.75 585.65C365.91 586.16 366.34 586.91 366.7 587.31C367.06 587.72 367.84 588.21 368.43 588.41C369.01 588.6 369.82 588.72 370.24 588.68C370.66 588.63 371.47 588.27 372.05 587.88C372.63 587.49 373.28 586.78 373.54 586.25C373.8 585.72 374.03 584.68 374.06 583.86C374.11 582.62 374.04 582.34 373.58 581.86C373.28 581.55 373.03 581.42 373.03 581.56ZM382.97 581.38C382.97 581.5 382.89 581.56 382.78 581.5C382.67 581.45 382.1 581.68 381.51 582.04C380.91 582.39 380.41 582.58 380.4 582.46C380.4 582.34 380.3 582.3 380.19 582.37C380.08 582.44 379.99 582.72 380 582.98C380.02 583.37 380.09 583.41 380.38 583.19C380.57 583.04 380.93 582.72 381.19 582.48L381.65 582.04C381.3 583.2 381.33 583.54 381.56 584.1C381.72 584.51 381.99 584.96 382.15 585.11C382.31 585.26 382.81 585.42 383.26 585.47C384.01 585.55 384.1 585.5 384.71 584.63C385.1 584.08 385.34 583.5 385.33 583.16C385.32 582.85 385.21 582.35 385.1 582.05C384.94 581.64 384.95 581.49 385.12 581.47C385.25 581.46 385.47 581.6 385.6 581.78C385.73 581.96 385.92 582.06 386.02 581.99C386.12 581.92 386.2 581.89 386.21 581.92C386.21 581.95 386.28 582.32 386.35 582.75C386.44 583.26 386.4 583.64 386.24 583.88C386.1 584.07 386.02 584.36 386.06 584.51C386.1 584.66 385.86 585.16 385.52 585.63C385.07 586.25 384.68 586.55 384.1 586.72C383.66 586.84 383.02 586.85 382.69 586.74C382.36 586.63 381.97 586.35 381.82 586.12C381.67 585.88 381.44 585.71 381.3 585.73C381.16 585.74 380.92 585.5 380.77 585.19C380.61 584.87 380.48 584.4 380.47 584.14C380.46 583.88 380.35 583.67 380.24 583.68C380.11 583.69 380.11 583.93 380.24 584.33C380.36 584.69 380.59 585.28 380.76 585.66C380.92 586.03 381.2 586.42 381.38 586.53C381.55 586.64 381.74 586.73 381.79 586.74C381.85 586.75 382.15 586.85 382.45 586.97C382.76 587.08 383.27 587.14 383.59 587.1C383.9 587.07 384.43 586.86 384.76 586.65C385.09 586.44 385.64 585.85 385.97 585.33C386.4 584.67 386.58 584.15 386.6 583.51C386.61 583.02 386.48 582.25 386.3 581.8C386.13 581.35 385.88 580.98 385.75 580.98C385.59 580.99 385.61 581.09 385.81 581.34C386.08 581.66 386.05 581.66 385.4 581.37C385.01 581.2 384.3 581.07 383.83 581.1C383.35 581.12 382.96 581.25 382.97 581.38ZM355.01 583.44C354.87 583.76 354.87 584.36 355.02 584.77C355.16 585.17 355.48 586.83 355.72 588.46C355.95 590.08 356.22 591.59 356.32 591.83C356.41 592.06 356.33 590.26 356.15 587.82C355.97 585.37 355.7 583.25 355.55 583.11C355.39 582.96 355.16 583.1 355.01 583.44Z" />
		<path id="tattoo-06-05" class="tattoo-06-i" d="M353.76 584.01C352.97 584.81 352.9 585.11 352.98 587.27C353.05 589.13 353.23 589.85 353.79 590.56C354.18 591.06 354.8 591.56 355.17 591.68C355.54 591.8 355.91 591.85 356.01 591.8C356.1 591.74 355.97 590.31 355.72 588.61C355.48 586.9 355.13 584.97 354.94 584.32L354.61 583.14L353.76 584.01ZM366.67 583.07C366.27 583.35 365.94 583.82 365.94 584.12C365.94 584.42 365.97 584.98 366.02 585.35C366.06 585.72 366.38 586.42 366.72 586.91C367.11 587.45 367.79 587.93 368.55 588.17C369.42 588.45 369.99 588.47 370.73 588.25C371.27 588.08 371.98 587.71 372.3 587.42C372.62 587.14 373.07 586.55 373.3 586.12C373.53 585.69 373.71 584.87 373.7 584.29C373.69 583.71 373.61 583.28 373.51 583.34C373.42 583.41 373.2 583.36 373.03 583.24C372.8 583.07 372.69 583.29 372.59 584.1C372.52 584.7 372.22 585.48 371.93 585.83C371.64 586.19 371.26 586.43 371.09 586.37C370.91 586.31 370.77 586.38 370.78 586.52C370.79 586.67 370.45 586.82 370.04 586.86C369.57 586.91 368.95 586.69 368.43 586.29C367.8 585.79 367.56 585.38 367.51 584.68C367.48 584.17 367.5 583.47 367.58 583.13C367.65 582.79 367.64 582.53 367.55 582.55C367.46 582.56 367.07 582.8 366.67 583.07Z" />
		<path id="tattoo-06-06" class="tattoo-06-ii" d="M369.22 583.83C369.15 584.01 369.18 584.36 369.28 584.61C369.4 584.92 369.67 585.02 370.15 584.94C370.69 584.84 370.83 584.68 370.81 584.19C370.79 583.7 370.63 583.56 370.07 583.54C369.67 583.52 369.29 583.66 369.22 583.83ZM382.77 582.76C382.78 582.84 382.78 583.16 382.77 583.48C382.77 584 382.83 584.05 383.4 583.95C383.97 583.85 384.03 583.77 383.98 583.19C383.93 582.64 383.84 582.55 383.34 582.59C383.02 582.61 382.76 582.69 382.77 582.76Z" />
		<path id="tattoo-06-07" class="tattoo-06-iii" d="M377.63 587.93C377.63 588.07 378.22 589.48 378.93 591.05C379.74 592.86 380.14 594.03 380.07 594.35C380.01 594.62 379.71 595.19 379.41 595.63C379.1 596.06 378.54 596.55 378.16 596.71C377.77 596.87 377.13 597.01 376.73 597.01C376.3 597.01 375.79 596.77 375.51 596.42C375.23 596.09 375.01 595.63 375 595.38C374.99 595.14 374.88 594.9 374.75 594.86C374.62 594.81 374.52 594.89 374.53 595.03C374.53 595.17 374.69 595.62 374.88 596.04C375.06 596.46 375.47 596.94 375.79 597.12C376.12 597.31 376.75 597.35 377.3 597.24C377.81 597.13 378.51 596.81 378.86 596.54C379.2 596.27 379.7 595.65 379.97 595.16C380.23 594.68 380.45 594.15 380.44 593.99C380.44 593.83 379.85 592.42 379.14 590.84C378.41 589.24 377.76 587.86 377.71 587.8C377.66 587.74 377.62 587.8 377.63 587.93ZM376.39 600.98C375.71 601.27 375.09 601.59 375.03 601.67C374.97 601.76 375.8 601.52 376.85 601.16C378.27 600.66 378.66 600.59 378.55 600.84C378.45 601.04 378.52 601.14 378.72 601.09C378.9 601.04 379.06 600.89 379.08 600.75C379.11 600.58 379.38 600.51 379.84 600.54C380.28 600.57 380.54 600.5 380.52 600.37C380.5 600.25 380.23 600.16 379.91 600.16C379.59 600.16 378.94 600.23 378.47 600.3C377.99 600.38 377.06 600.69 376.39 600.98ZM383.94 599.76C384.13 599.83 384.38 599.86 384.24 599.73C384.1 599.61 383.9 599.53 383.79 599.56C383.69 599.6 383.75 599.68 383.94 599.76Z" />
	</g>
</svg>