<svg xmlns="http://www.w3.org/2000/svg" viewBox="0 0 400 600" width="400" height="600">
	<style>
		tspan { white-space:pre }
		.tattoo-04 { opacity: 0.749;mix-blend-mode: multiply;fill: #000000 } 
	</style>
	<path id="tattoo-04" fill-rule="evenodd" class="tattoo-04" d="M21.04 569.81C21.1 569.8 21.58 570.26 22.12 570.85C22.66 571.48 23.53 572.18 24.05 572.38C24.58 572.6 24.96 572.9 24.9 573.04C24.83 573.18 24.24 573.63 22.47 574.74L20.57 579.02C19.16 582.59 19.09 582.87 19.42 583.21C19.62 583.41 19.74 583.7 19.69 583.83C19.64 583.97 19.25 583.99 18.83 583.87C18.42 583.75 17.64 583.73 17.11 583.81C16.59 583.9 15.76 584.3 14.41 585.4L12.98 583.64C12.25 582.74 17.1 572.78 18.24 571.97C19.45 571.1 20.59 570.23 20.71 570.09C20.83 569.94 20.98 569.82 21.04 569.81ZM15.57 577.59C14.47 580.82 14.37 581.32 14.54 581.7C14.65 581.94 15 582.43 15.31 582.8C15.79 583.35 15.97 583.45 16.31 583.31C16.69 583.15 16.85 582.75 18.06 579.23L19.83 574.87C18.56 573.42 18.1 573.04 17.97 573.05C17.84 573.06 17.61 573.16 17.47 573.27C17.33 573.38 16.42 575.39 15.57 577.59ZM31.06 569.83L31.86 571.39C32.34 572.26 33.03 573.19 33.36 573.46C33.84 573.84 34.29 573.85 35.27 573.51C35.99 573.26 37.49 572.38 40.66 569.95L41.59 571.65C42.17 572.56 43.05 573.54 43.54 573.84C44.04 574.13 45.13 574.41 45.97 574.46C47.13 574.53 48.32 574.08 53.6 570.47L52.8 583.86C46.62 590.63 45.69 591.57 45.88 592.25C45.95 592.7 46.59 593.01 47.36 592.92C48.14 592.82 48.97 592.91 49.16 593.13C49.35 593.37 45.97 594.48 36.8 596.56L38 593.9C38.33 592.58 38.4 591.07 38.02 589.5L42.62 587.87L46.33 582.72C47.78 579.95 48.6 577.48 48.45 577.22C48.31 576.97 47.69 576.53 47.1 576.24C46.52 575.95 45.52 575.68 44.88 575.64C44.26 575.6 43.14 575.79 42.4 576.08C41.13 576.56 40.98 576.81 38.65 581.68C35.89 586.38 35.81 586.56 36.6 588.82L34.16 589.8C32.92 590.3 31.61 590.97 31.19 591.31C30.48 591.9 30.45 591.85 29.92 589.82C29.53 588.72 29.02 587.62 28.83 587.32C28.52 586.85 28.64 586.73 31.93 585.33L36.16 576.75L35.15 575.75C34.62 575.2 33.78 574.71 33.27 574.67C32.76 574.62 31.94 574.87 31.43 575.2C30.64 575.71 30.22 576.44 26.45 584.78L27.81 586.45L23.25 588.82L22.98 587.86C22.84 587.33 22.41 586.44 21.39 584.87L23.78 583.25L25.5 579.34C27.5 575.06 27.52 574.99 26.98 574.52C26.52 574.11 26.32 574.13 25.53 574.7C24.82 575.2 24.67 575.23 24.81 574.84C24.91 574.57 26.26 573.42 27.89 572.21L31.06 569.83Z" />
</svg>