<svg xmlns="http://www.w3.org/2000/svg" viewBox="0 0 400 600" width="400" height="600">
	<style>
		tspan { white-space:pre }
		.tattoo-02 { opacity: 0.749;mix-blend-mode: multiply;fill: #000000 } 
	</style>
	<path id="tattoo-02" class="tattoo-02" d="M364.72 550.91C364.32 551.51 364.29 553.01 364.64 554.25C364.99 555.49 367.1 559.2 369.32 562.5C371.93 566.36 373.52 567.97 373.8 567C374.04 566.17 373.96 563.7 373.62 561.5C373.19 558.73 371.84 556.32 369.22 553.66C366.83 551.24 365.17 550.22 364.72 550.91ZM355.5 554.67C355.04 555.03 354.74 556.61 354.83 558.17C354.93 559.73 356.29 562.46 357.86 564.25C359.43 566.04 362.58 568.4 364.85 569.5C367.13 570.6 369.21 571.16 369.49 570.75C369.77 570.34 368.85 567.41 367.44 564.25C366.03 561.09 363.89 557.48 362.69 556.22C361.49 554.97 359.56 553.96 358.42 553.97C357.27 553.99 355.96 554.3 355.5 554.67ZM349.86 568.6C348.92 569.71 348.72 571.33 349.22 573.85C349.61 575.86 351.07 578.51 352.47 579.75C353.9 581.02 356.31 582 358 582C359.65 582 362.57 581.33 364.5 580.5C366.43 579.67 368 578.55 368 578C368 577.45 365.52 574.75 362.5 572C358.57 568.42 356.18 567 354.11 567C352.52 567 350.61 567.72 349.86 568.6ZM377.55 573.5C377.8 574.33 378.23 575 378.5 575C378.77 575 379 574.33 379 573.5C379 572.67 378.57 572 378.05 572C377.52 572 377.3 572.67 377.55 573.5ZM372.1 576.44C372.05 577.3 372.45 578.23 373 578.5C373.55 578.77 374.05 578.35 374.1 577.56C374.16 576.77 373.75 575.84 373.2 575.5C372.65 575.16 372.16 575.58 372.1 576.44ZM376.35 579.75C376.02 580.71 376.25 582.51 376.87 583.75C377.49 584.99 378.68 586 379.5 586C380.32 586 381.23 585.33 381.5 584.5C381.77 583.67 381.55 581.88 381 580.5C380.45 579.13 379.31 578 378.48 578C377.64 578 376.68 578.79 376.35 579.75ZM382.94 581C382.94 581.83 383.29 582.16 383.72 581.75C384.15 581.34 384.15 580.66 383.72 580.25C383.29 579.84 382.94 580.17 382.94 581ZM356.44 585.98C355.31 586.51 353.83 588.2 353.15 589.72C352.23 591.79 352.2 593.26 353.01 595.5C353.61 597.15 354.86 599.3 355.8 600.28C356.73 601.26 358.29 602.05 359.25 602.03C360.21 602.01 362.38 600.54 364.06 598.75C365.74 596.96 367.88 593.59 368.81 591.26C369.74 588.92 370.12 586.67 369.65 586.26C369.19 585.84 366.49 585.39 363.65 585.26C360.82 585.13 357.57 585.45 356.44 585.98ZM374.12 588.42C374.05 589.29 374.56 589.85 375.25 589.67C375.94 589.48 376.39 588.92 376.25 588.42C376.11 587.91 375.6 587.35 375.12 587.17C374.63 586.98 374.18 587.55 374.12 588.42ZM382.1 589.44C382.05 590.3 382.45 591 383 591C383.55 591 384.05 590.58 384.1 590.06C384.16 589.54 383.75 588.84 383.2 588.5C382.65 588.16 382.16 588.58 382.1 589.44ZM370.17 597.29C368.48 599.06 366.4 602.19 365.55 604.25C364.7 606.31 375.02 607.61 375.1 602.31C375.16 598.35 374.76 594.88 374.22 594.6C373.67 594.31 371.85 595.52 370.17 597.29ZM384 599C384 600.65 389.78 602.58 388.26 600.24C386.74 597.9 385.16 595.99 384.75 595.99C384.34 596 384 597.35 384 599ZM378.06 601.74C377.27 604.36 383.28 606.25 382.38 603.5C381.47 600.75 380.46 598.16 380.12 597.74C379.78 597.32 378.85 599.12 378.06 601.74ZM366.43 553.97C366.47 555.28 367.06 556.49 367.75 556.67C368.44 556.85 369.1 556.38 369.23 555.62C369.36 554.86 368.77 553.65 367.91 552.92C366.57 551.78 366.37 551.92 366.43 553.97ZM355.62 554.79C355.31 555.18 355.56 556.4 356.18 557.5C356.79 558.6 357.79 559.81 358.4 560.19C359 560.57 360.07 560.35 360.76 559.69C361.78 558.73 361.78 558.23 360.76 557.13C360.07 556.38 358.75 555.38 357.84 554.92C356.93 554.45 355.93 554.39 355.62 554.79ZM365 562.5C365 562.77 365.23 563 365.5 563C365.77 563 366 562.77 366 562.5C366 562.23 365.77 562 365.5 562C365.23 562 365 562.23 365 562.5ZM373.94 563C373.94 563.83 374.29 564.16 374.72 563.75C375.15 563.34 375.15 562.66 374.72 562.25C374.29 561.84 373.94 562.17 373.94 563ZM371.99 568C371.95 568.83 372.63 570.17 373.5 571C374.37 571.83 375.08 572.05 375.06 571.5C375.05 570.95 374.37 569.6 373.55 568.5C372.43 566.99 372.04 566.87 371.99 568ZM359 573.06C361.48 575.25 365.07 578.2 367 579.61C369.11 581.17 371.19 581.96 372.25 581.6C373.21 581.27 374.01 580.21 374.03 579.25C374.05 578.29 373.26 576.76 372.28 575.86C371.3 574.96 367.24 573.05 363.25 571.61C359.26 570.18 355.66 569.02 355.25 569.04C354.84 569.07 356.52 570.87 359 573.06ZM378.66 571.25C378.36 572.49 378.54 574.29 379.06 575.25C379.58 576.21 380.45 577 381 577C381.55 577 382 575.88 382 574.5C382 573.13 381.77 571.33 381.5 570.5C381.23 569.67 380.59 569 380.1 569C379.6 569 378.95 570.01 378.66 571.25ZM382.65 576.75C382.29 577.44 382.23 578.9 382.5 580C382.77 581.1 383.52 581.89 384.15 581.75C384.78 581.61 385.47 581.05 385.67 580.5C385.87 579.95 385.42 578.6 384.67 577.5C383.68 576.06 383.12 575.85 382.65 576.75ZM355.11 581.5C354.35 582.53 354.31 583.63 355 585C355.6 586.2 357 587 358.5 587C359.88 587 361.23 586.33 361.5 585.5C361.77 584.67 361.55 583.1 361 582C360.45 580.9 359.15 580 358.11 580C357.07 580 355.72 580.67 355.11 581.5ZM377.05 582.18C376.97 583.45 377.61 585.06 378.46 585.75C379.69 586.75 380.11 586.75 380.57 585.75C380.88 585.06 380.99 583.6 380.8 582.5C380.62 581.4 379.73 580.35 378.82 580.18C377.7 579.96 377.14 580.59 377.05 582.18ZM368.69 586C367.25 587.1 364.15 590.26 361.79 593.04C359.43 595.81 357.83 598.4 358.23 598.79C358.63 599.18 362.35 597.81 366.48 595.75C370.62 593.69 374.28 591.21 374.63 590.25C374.97 589.29 374.75 587.49 374.13 586.25C373.51 585.01 372.62 584 372.15 584C371.69 584 370.13 584.9 368.69 586ZM383.55 585C383.25 585.55 383.21 586.56 383.48 587.25C383.74 587.94 384.86 588.84 385.98 589.25C387.52 589.82 388 589.59 388.02 588.25C388.03 587.29 387.46 585.93 386.77 585.23C386.07 584.54 385.18 583.97 384.8 583.98C384.41 583.99 383.85 584.45 383.55 585ZM381.55 589.64C381.06 590.02 380.74 591.16 380.83 592.17C380.93 593.17 381.9 595.35 383 597C384.1 598.65 385.45 600 386 600C386.65 600 386.6 598.49 385.87 595.75C385.24 593.41 384.21 590.93 383.58 590.23C382.95 589.53 382.03 589.26 381.55 589.64ZM375.85 591.28C375.16 591.9 374.69 594.11 374.8 596.2C374.96 599.27 375.39 600 377 600C378.26 600 379.18 599.17 379.49 597.75C379.75 596.51 379.96 594.54 379.94 593.36C379.92 592.18 379.28 590.98 378.51 590.69C377.73 590.39 376.54 590.66 375.85 591.28ZM387.94 595C387.94 595.83 388.29 596.16 388.72 595.75C389.15 595.34 389.15 594.66 388.72 594.25C388.29 593.84 387.94 594.17 387.94 595Z" />
</svg>