<svg xmlns="http://www.w3.org/2000/svg" viewBox="0 0 400 600" width="400" height="600">
	<style>
		tspan { white-space:pre }
		.tattoo-03-1 { opacity: 0.749;fill: #000000 } 
		.tattoo-03-2 { opacity: 0.749;fill: #4f4e77 } 
	</style>
	<g id="Layer 1">
		<path id="tattoo-03-1" fill-rule="evenodd" class="tattoo-03-1" d="M183.75 556.19C184.06 556.19 184.35 556.25 184.71 556.39C185.13 556.55 185.33 556.69 185.69 557.05C185.95 557.31 186.24 557.69 186.34 557.91C186.44 558.12 186.52 558.43 186.52 558.59C186.52 558.75 186.49 559.11 186.45 559.39C186.41 559.66 186.24 560.23 186.08 560.64C185.8 561.38 185.76 561.43 185.08 562.11C184.69 562.49 184.21 563.01 184.01 563.25C183.82 563.5 183.54 563.93 183.4 564.22C183.25 564.5 183.05 564.9 182.93 565.11C182.82 565.31 182.64 565.73 182.52 566.05C182.35 566.49 182.3 566.75 182.3 567.16C182.3 567.46 182.25 568 182.19 568.38C182.13 568.76 181.98 569.42 181.86 569.86C181.74 570.3 181.52 570.91 181.38 571.21C181.24 571.52 181.02 572.22 180.89 572.77C180.76 573.32 180.61 573.86 180.55 573.97C180.5 574.08 180.45 574.24 180.45 574.32C180.45 574.4 180.64 574.66 180.87 574.9C181.09 575.13 181.36 575.46 181.45 575.62C181.55 575.78 181.77 576.23 182.25 577.32L182.25 578.39C182.25 579.22 182.21 579.62 181.93 580.84L182.12 581.37C182.28 581.83 182.3 582 182.26 582.47C182.23 582.9 182.25 583.05 182.34 583.17C182.45 583.32 182.45 583.32 182.66 583.16C182.77 583.08 183.02 582.97 183.21 582.92C183.4 582.88 183.77 582.84 184.02 582.84C184.28 582.85 184.79 582.8 185.15 582.73C185.52 582.66 186.19 582.52 186.63 582.42C187.08 582.32 187.47 582.21 187.5 582.18C187.53 582.16 187.59 581.78 187.63 581.36C187.7 580.59 187.7 580.57 187.96 580.34C188.19 580.13 188.28 580.1 188.6 580.1C188.8 580.1 189.07 580.14 189.21 580.2C189.34 580.25 189.67 580.52 189.95 580.79C190.22 581.06 190.59 581.34 190.76 581.42C190.94 581.49 191.24 581.62 191.45 581.69C191.65 581.77 191.95 581.95 192.1 582.09C192.26 582.24 192.53 582.56 192.71 582.8C192.96 583.15 193.04 583.35 193.11 583.76C193.16 584.06 193.17 584.39 193.13 584.53C193.1 584.67 192.99 584.85 192.89 584.92C192.79 585 192.61 585.06 192.48 585.06C192.36 585.06 192.14 584.99 192 584.9C191.86 584.81 191.56 584.65 191.34 584.54C191.11 584.42 190.7 584.26 190.41 584.18C190.13 584.09 189.76 584.02 189.6 584.02C189.37 584.02 189.27 584.05 189.19 584.18C189.1 584.31 189.05 584.33 188.93 584.26C188.83 584.21 188.73 584.21 188.63 584.26C188.49 584.33 188.49 584.34 188.72 584.82C188.89 585.19 189.11 585.49 189.61 585.98C189.97 586.35 190.37 586.83 190.5 587.06C190.63 587.28 190.8 587.65 190.89 587.87C190.97 588.1 191.04 588.41 191.04 588.57C191.04 588.74 190.99 588.95 190.93 589.04C190.87 589.13 190.74 589.2 190.65 589.2C190.54 589.2 190.37 589.07 190.15 588.81C189.96 588.6 189.59 588.27 189.33 588.09C189.05 587.89 188.55 587.63 188.12 587.47C187.4 587.2 187.34 587.19 186.3 587.18C185.71 587.17 184.96 587.19 184.64 587.22C184.31 587.26 183.81 587.35 183.53 587.44C183.24 587.52 182.34 587.7 181.53 587.84C180.71 587.98 179.87 588.09 179.66 588.09C179.44 588.09 179.04 588.12 178.77 588.16C178.49 588.2 177.67 588.25 176.94 588.27C176.2 588.3 174.95 588.36 174.14 588.43C173.34 588.49 172.65 588.52 172.6 588.5C172.56 588.48 171.84 588.51 171 588.56C169.74 588.63 169.44 588.67 169.16 588.91L169.33 589.06C169.42 589.14 169.47 589.22 169.44 589.24C169.41 589.25 169.03 589.29 168.61 589.32C168.18 589.35 167.75 589.4 167.64 589.44C167.54 589.48 166.51 589.58 165.35 589.65C163.47 589.78 163.18 589.78 162.72 589.69C162.44 589.63 162.1 589.57 161.98 589.55C161.86 589.53 161.04 589.56 160.17 589.62C159.29 589.67 158.51 589.74 158.43 589.77C158.35 589.79 157.75 589.85 157.09 589.9C156.04 589.98 155.89 590 155.72 590.15C155.62 590.24 155.51 590.32 155.47 590.31C155.43 590.31 154.03 590.4 152.36 590.51C149.51 590.69 149.3 590.69 149.06 590.58C148.82 590.46 148.63 590.47 146.06 590.64C144.11 590.76 143.25 590.79 143.06 590.74C142.91 590.7 142.27 590.68 141.51 590.71C140.8 590.73 139.88 590.78 139.47 590.83C139.07 590.88 138.62 590.97 138.47 591.03C138.33 591.09 137.78 591.17 137.18 591.21C136.61 591.25 136.03 591.33 135.88 591.39C135.74 591.44 135.38 591.51 135.09 591.53C134.75 591.56 134.55 591.55 134.55 591.5C134.55 591.46 134.68 591.36 134.85 591.28C135.02 591.19 135.17 591.05 135.22 590.93C135.29 590.76 135.28 590.71 135.17 590.63C135.09 590.58 134.91 590.53 134.75 590.54C134.56 590.54 134.41 590.6 134.24 590.74C134.02 590.93 134.01 590.94 134.06 590.78C134.1 590.64 134.07 590.59 133.83 590.5C133.68 590.43 133.51 590.4 133.46 590.42C133.39 590.45 133.37 590.36 133.37 590.07C133.37 589.86 133.45 589.45 133.54 589.17C133.64 588.88 133.74 588.42 133.77 588.15C133.8 587.79 133.78 587.63 133.72 587.58C133.67 587.53 133.54 587.44 133.44 587.36C133.26 587.22 133.26 587.21 133.36 586.93C133.42 586.78 133.47 586.33 133.48 585.95C133.5 585.56 133.54 584.99 133.59 584.69C133.63 584.38 133.69 583.87 133.71 583.54C133.74 583.17 133.72 582.84 133.66 582.65C133.61 582.49 133.51 582.21 133.43 582.04C133.36 581.87 133.29 581.63 133.29 581.52C133.29 581.41 133.2 581.12 133.08 580.88C132.88 580.46 132.86 580.33 132.68 577.62L132.98 576.95C133.25 576.36 133.28 576.27 133.18 576.17C133.11 576.11 132.93 576.06 132.42 576.06L132.31 574.66L132.58 574.14C132.73 573.85 132.85 573.57 132.85 573.51C132.85 573.45 132.71 573.35 132.22 573.16L132.18 572.67C132.15 572.18 132.15 572.17 132.42 571.88C132.68 571.6 132.73 571.58 133.11 571.58C133.37 571.58 133.61 571.64 133.79 571.73C134.05 571.87 134.13 571.87 134.88 571.8C135.33 571.76 135.88 571.66 136.11 571.58C136.33 571.51 136.85 571.42 137.27 571.39C137.86 571.34 138.03 571.35 138.03 571.42C138.03 571.47 138 571.51 137.96 571.51C137.92 571.51 137.88 571.53 137.88 571.57C137.88 571.6 138.03 571.72 138.2 571.84C138.48 572.04 138.56 572.06 139.03 572.05C139.32 572.05 139.56 572.07 139.59 572.1C139.61 572.13 139.72 572.18 139.84 572.21C140.04 572.25 140.07 572.23 140.12 572.07C140.15 571.96 140.25 571.86 140.34 571.84C140.44 571.82 140.83 571.77 141.21 571.73C141.6 571.7 142.1 571.6 142.32 571.52C142.57 571.43 142.91 571.37 143.19 571.36C143.58 571.36 143.68 571.33 143.8 571.19C143.88 571.1 143.93 570.99 143.91 570.94C143.89 570.88 143.96 570.84 144.1 570.84C144.22 570.84 144.83 570.81 145.45 570.77C146.07 570.73 146.71 570.68 146.86 570.66C147.09 570.63 147.17 570.65 147.34 570.83C147.51 571 147.63 571.05 148.06 571.09C148.49 571.14 148.7 571.12 149.25 570.98C149.85 570.82 150.06 570.81 151.54 570.82C152.56 570.83 153.3 570.87 153.5 570.92C153.69 570.97 153.87 571.04 153.91 571.08C153.95 571.11 154.17 571.14 154.39 571.14C154.62 571.14 155.07 571.08 155.39 571.02C155.72 570.96 156.3 570.87 156.69 570.81C157.07 570.75 158.07 570.6 158.91 570.48C159.74 570.36 160.69 570.2 161.02 570.15C161.34 570.09 161.93 570.02 162.31 570C162.7 569.97 163.46 569.9 164 569.83C164.67 569.74 164.98 569.67 164.98 569.6C164.98 569.55 165.05 569.5 165.15 569.48C165.24 569.46 167.13 569.32 173.38 568.92L173.64 569.08C173.88 569.23 173.96 569.24 174.62 569.19C175.33 569.14 175.35 569.15 175.75 569.52L175.51 569.7C175.38 569.8 175.27 569.91 175.27 569.95C175.27 570 175.44 570.03 176.01 570.03L176.05 569.75C176.08 569.6 176.2 569.24 176.32 568.96C176.45 568.67 176.75 568.17 177 567.84C177.25 567.52 177.6 567.09 177.79 566.88C177.98 566.68 178.21 566.38 178.3 566.22C178.38 566.05 178.45 565.86 178.45 565.79C178.45 565.72 178.4 565.64 178.34 565.62C178.28 565.6 178.12 565.65 177.99 565.73C177.86 565.81 177.65 565.88 177.53 565.88C177.41 565.89 177.27 565.85 177.21 565.79C177.16 565.74 177.1 565.57 177.07 565.41C177.04 565.25 176.99 565.11 176.95 565.1C176.92 565.08 176.9 565.02 176.9 564.96C176.9 564.9 176.98 564.8 177.09 564.75C177.19 564.7 177.27 564.62 177.27 564.57C177.27 564.52 177.19 564.48 177.08 564.48C176.94 564.48 176.91 564.45 176.94 564.35C176.96 564.28 176.93 564.17 176.86 564.11C176.8 564.05 176.74 563.96 176.75 563.92C176.75 563.88 176.85 563.71 176.97 563.55C177.1 563.39 177.2 563.17 177.2 563.07C177.2 562.97 177.3 562.7 177.42 562.48C177.54 562.25 177.69 561.95 177.75 561.81C177.81 561.67 177.99 561.47 178.13 561.37C178.39 561.2 178.47 561.18 179.28 561.18C180.14 561.18 180.15 561.18 180.38 561.4C180.5 561.53 180.62 561.69 180.65 561.77C180.67 561.86 180.74 561.97 180.79 562.03C180.84 562.09 180.92 562.29 180.96 562.48C181.02 562.72 181.01 562.84 180.95 562.91C180.9 562.96 180.88 563 180.92 563C180.95 563 180.92 563.17 180.86 563.38C180.8 563.6 180.75 563.86 180.76 564.14L180.88 563.96C180.95 563.86 181.19 563.57 181.42 563.31C181.67 563.01 182.02 562.71 182.38 562.5C182.68 562.32 183.07 562.06 183.23 561.93C183.39 561.79 183.59 561.65 183.67 561.61C183.75 561.57 184.04 561.36 184.3 561.14C184.74 560.79 184.77 560.75 184.64 560.68C184.54 560.63 184.38 560.64 184.15 560.7C183.95 560.76 183.69 560.78 183.49 560.75C183.3 560.72 183 560.61 182.82 560.51C182.64 560.41 182.37 560.17 182.22 559.98C182.07 559.79 181.88 559.47 181.79 559.28C181.68 559.02 181.64 558.77 181.64 558.35C181.64 557.9 181.68 557.69 181.81 557.41C181.91 557.2 182.1 556.92 182.24 556.79C182.38 556.65 182.58 556.49 182.7 556.43C182.81 556.36 182.99 556.28 183.1 556.25C183.21 556.22 183.5 556.2 183.75 556.19ZM171.88 564.34C172.08 564.33 172.09 564.35 172.12 564.72C172.14 564.93 172.2 565.69 172.24 566.4C172.29 567.11 172.33 567.7 172.34 567.71C172.34 567.72 172.81 567.69 173.38 567.66C173.95 567.62 174.61 567.57 175.27 567.51L175.27 568.14L173.51 568.26C172.54 568.32 171.74 568.37 171.73 568.37C171.72 568.36 171.67 567.66 171.61 566.81C171.55 565.95 171.48 565.06 171.46 564.83C171.43 564.46 171.44 564.4 171.55 564.37C171.62 564.36 171.77 564.34 171.88 564.34ZM167.81 564.63C168 564.62 168.02 564.64 168.05 565.01C168.07 565.23 168.13 565.98 168.17 566.7C168.22 567.41 168.26 568 168.26 568.01C168.27 568.01 168.74 567.99 169.31 567.95C169.88 567.92 170.54 567.87 171.2 567.81L171.2 568.44L169.44 568.55C168.47 568.62 167.67 568.67 167.66 568.66C167.65 568.66 167.59 567.96 167.54 567.1C167.48 566.25 167.41 565.36 167.39 565.12C167.35 564.76 167.37 564.69 167.48 564.67C167.55 564.65 167.7 564.64 167.81 564.63ZM164.78 564.84C164.91 564.84 165.15 565.2 166.07 566.73C166.69 567.77 167.18 568.66 167.16 568.7C167.14 568.74 167 568.77 166.85 568.77C166.59 568.77 166.56 568.75 165.98 567.79L164.98 567.84C164.43 567.87 163.96 567.91 163.94 567.92C163.92 567.93 163.81 568.18 163.5 568.99L163.17 568.99C162.98 568.99 162.83 568.98 162.83 568.96C162.83 568.94 163.2 568.04 163.66 566.97C164.11 565.91 164.52 564.99 164.56 564.94C164.59 564.89 164.7 564.85 164.78 564.84ZM164.43 566.75L164.16 567.36C165.28 567.29 165.62 567.27 165.63 567.26C165.64 567.26 165.49 566.94 165.29 566.57C165.1 566.19 164.9 565.88 164.85 565.88C164.81 565.88 164.76 565.94 164.74 566.01C164.72 566.08 164.58 566.42 164.43 566.75ZM160.67 565.15C161.13 565.15 161.43 565.18 161.61 565.25C161.76 565.32 161.92 565.46 161.98 565.59C162.04 565.71 162.09 565.95 162.09 566.12C162.09 566.31 162.04 566.51 161.96 566.61C161.84 566.79 161.84 566.79 162.07 566.96C162.21 567.07 162.37 567.28 162.43 567.46C162.51 567.65 162.53 567.87 162.51 568.03C162.48 568.17 162.4 568.4 162.31 568.53C162.23 568.66 162.03 568.83 161.85 568.92C161.61 569.03 161.21 569.08 160.09 569.16C159.3 569.22 158.64 569.26 158.63 569.26C158.62 569.25 158.56 568.38 158.49 567.31C158.41 566.25 158.37 565.36 158.39 565.33C158.41 565.31 158.78 565.26 159.2 565.23C159.63 565.19 160.29 565.16 160.67 565.15ZM159.11 565.87C159.07 565.9 159.07 566.1 159.09 566.33L159.14 566.73C160.73 566.63 161.15 566.57 161.26 566.51C161.38 566.43 161.43 566.33 161.43 566.14C161.43 565.96 161.38 565.86 161.28 565.81C161.2 565.77 160.94 565.74 160.7 565.75C160.47 565.76 160.03 565.78 159.72 565.79C159.42 565.8 159.14 565.84 159.11 565.87ZM159.52 567.33L159.13 567.37C159.2 568.31 159.23 568.59 159.23 568.6C159.24 568.61 159.71 568.58 160.28 568.54C160.85 568.51 161.39 568.46 161.48 568.44C161.57 568.42 161.7 568.29 161.77 568.16C161.84 568.01 161.87 567.84 161.84 567.72C161.82 567.6 161.73 567.45 161.65 567.36C161.53 567.25 161.41 567.22 161.07 567.23C160.84 567.24 160.48 567.25 160.28 567.27C160.07 567.28 159.73 567.31 159.52 567.33ZM157.56 565.3C157.94 565.29 157.95 565.29 157.97 565.53C157.99 565.66 157.99 565.8 157.97 565.83C157.96 565.86 157.58 565.9 156.32 565.96L156.35 566.35C156.37 566.56 156.43 567.32 156.47 568.03C156.51 568.74 156.54 569.33 156.52 569.34C156.51 569.35 156.37 569.37 155.91 569.4L155.69 566.02L154.02 566.11L154.02 565.51L154.37 565.51C154.57 565.5 155.28 565.46 155.95 565.41C156.62 565.35 157.34 565.31 157.56 565.3ZM153.81 565.57C153.85 565.59 153.89 565.72 153.87 566.14L152.49 566.24C151.72 566.29 151.04 566.33 150.97 566.33C150.86 566.33 150.84 566.39 150.88 567.25L151.65 567.23C152.08 567.22 152.54 567.2 152.67 567.18C152.91 567.14 152.91 567.15 152.93 567.45C152.94 567.61 152.92 567.76 152.87 567.78C152.83 567.79 152.38 567.82 150.91 567.88L150.96 568.49C150.99 568.83 151.01 569.11 151.02 569.12C151.02 569.12 151.71 569.08 152.54 569.03C153.38 568.97 154.1 568.92 154.15 568.92C154.2 568.92 154.26 569.04 154.28 569.2C154.31 569.35 154.31 569.48 154.3 569.49C154.29 569.51 153.42 569.58 152.36 569.65C151.3 569.72 150.42 569.78 150.41 569.78C150.4 569.77 150.33 568.89 150.25 567.81C150.18 566.73 150.13 565.83 150.15 565.81C150.17 565.79 150.98 565.72 151.96 565.66C152.93 565.6 153.77 565.56 153.81 565.57ZM148.61 565.88L149.39 565.88L147.87 567.4L148.88 568.59C149.75 569.6 149.88 569.78 149.76 569.82C149.68 569.85 149.53 569.87 149.41 569.88C149.24 569.88 149.07 569.72 147.4 567.8L146.68 568.51L146.77 570.03L146.45 570.05C146.28 570.07 146.13 570.08 146.12 570.07C146.11 570.07 146.05 569.19 145.97 568.13C145.9 567.06 145.86 566.17 145.88 566.15C145.9 566.14 146.05 566.11 146.51 566.07L146.56 566.88C146.6 567.33 146.64 567.71 146.66 567.72C146.68 567.73 147.12 567.32 147.65 566.81L148.61 565.88ZM142.99 566.18C143.35 566.18 143.71 566.23 144.03 566.32C144.29 566.4 144.57 566.51 144.64 566.56C144.76 566.66 144.76 566.67 144.62 566.9C144.51 567.08 144.44 567.13 144.34 567.09C144.27 567.07 144.05 566.98 143.84 566.91C143.63 566.83 143.26 566.78 142.99 566.77C142.67 566.77 142.42 566.82 142.26 566.9C142.12 566.97 141.97 567.08 141.93 567.14C141.89 567.2 141.88 567.34 141.91 567.46C141.94 567.58 142.02 567.68 142.12 567.71C142.21 567.74 142.69 567.76 143.18 567.77C143.97 567.77 144.1 567.79 144.43 567.96C144.63 568.06 144.86 568.22 144.94 568.33C145.01 568.43 145.09 568.68 145.11 568.88C145.14 569.15 145.11 569.32 145.01 569.51C144.94 569.65 144.76 569.85 144.62 569.97C144.48 570.08 144.14 570.23 143.88 570.29C143.55 570.38 143.25 570.4 142.92 570.38C142.65 570.35 142.22 570.27 141.95 570.18C141.69 570.1 141.41 569.99 141.34 569.94C141.21 569.85 141.2 569.83 141.32 569.6C141.38 569.47 141.46 569.36 141.49 569.36C141.52 569.36 141.76 569.45 142.03 569.56C142.4 569.71 142.65 569.75 143.1 569.76C143.61 569.77 143.74 569.74 144.01 569.58C144.2 569.47 144.36 569.31 144.41 569.18C144.47 569.02 144.47 568.91 144.41 568.77C144.36 568.67 144.23 568.54 144.12 568.48C143.99 568.41 143.6 568.37 142.99 568.35C142.48 568.34 141.97 568.3 141.84 568.26C141.72 568.22 141.54 568.1 141.44 567.99C141.28 567.83 141.25 567.72 141.25 567.36C141.25 567 141.28 566.9 141.44 566.73C141.54 566.62 141.71 566.48 141.83 566.42C141.94 566.36 142.13 566.28 142.24 566.25C142.35 566.22 142.69 566.19 142.99 566.18ZM138.72 566.55C138.85 566.55 139.09 566.9 140.01 568.44C140.63 569.47 141.12 570.36 141.1 570.4C141.08 570.44 140.94 570.47 140.79 570.47C140.52 570.48 140.5 570.45 139.92 569.49L138.92 569.55C138.37 569.58 137.9 569.61 137.88 569.62C137.86 569.63 137.75 569.88 137.44 570.7L137.11 570.7C136.92 570.7 136.77 570.68 136.77 570.66C136.77 570.64 137.14 569.75 137.6 568.68C138.05 567.61 138.46 566.69 138.5 566.64C138.53 566.59 138.64 566.55 138.72 566.55ZM138.37 568.46L138.1 569.07C139.22 568.99 139.56 568.97 139.57 568.96C139.58 568.96 139.43 568.65 139.23 568.27C139.04 567.89 138.84 567.59 138.79 567.59C138.75 567.59 138.7 567.64 138.68 567.72C138.66 567.79 138.52 568.12 138.37 568.46ZM134.53 566.86C135 566.85 135.3 566.88 135.48 566.96C135.62 567.02 135.78 567.16 135.85 567.29C135.91 567.41 135.96 567.65 135.96 567.83C135.96 568.01 135.91 568.21 135.83 568.32C135.7 568.49 135.7 568.49 135.94 568.67C136.08 568.77 136.23 568.98 136.3 569.16C136.37 569.35 136.4 569.57 136.37 569.73C136.35 569.88 136.26 570.1 136.18 570.23C136.1 570.37 135.89 570.54 135.72 570.62C135.47 570.73 135.08 570.79 133.96 570.87C133.16 570.92 132.51 570.96 132.5 570.96C132.49 570.96 132.42 570.08 132.35 569.02C132.28 567.95 132.24 567.06 132.26 567.04C132.28 567.01 132.64 566.96 133.07 566.93C133.5 566.89 134.16 566.86 134.53 566.86ZM132.97 567.57C132.94 567.6 132.93 567.81 132.96 568.03L133 568.44C134.6 568.34 135.02 568.28 135.12 568.21C135.25 568.13 135.29 568.03 135.29 567.84C135.29 567.66 135.25 567.56 135.14 567.51C135.06 567.47 134.8 567.44 134.57 567.45C134.34 567.46 133.89 567.48 133.59 567.49C133.28 567.51 133.01 567.54 132.97 567.57ZM133.38 569.03L132.99 569.07C133.07 570.01 133.09 570.29 133.1 570.3C133.1 570.31 133.57 570.28 134.14 570.25C134.71 570.21 135.26 570.16 135.35 570.14C135.44 570.12 135.57 570 135.63 569.86C135.71 569.71 135.74 569.54 135.71 569.42C135.68 569.31 135.59 569.15 135.51 569.07C135.4 568.95 135.28 568.92 134.94 568.93C134.71 568.94 134.35 568.96 134.14 568.97C133.94 568.98 133.6 569.01 133.38 569.03Z" />
		<path id="tattoo-03-2" class="tattoo-03-2" d="M172.47 571.09C169.95 571.28 169.33 571.35 169.27 571.44C169.24 571.5 168.44 573.85 167.5 576.67C166.25 580.42 165.76 581.8 165.68 581.8C165.61 581.8 164.74 580.12 163.13 576.88L160.69 571.95C159.97 572.02 158.39 572.13 156.72 572.25C155.05 572.37 153.61 572.47 153.52 572.47C153.37 572.47 153.36 572.51 153.36 572.9C153.36 573.13 153.38 573.65 153.41 574.05L153.47 574.78C154.7 574.74 155.06 574.73 155.06 574.73C155.06 574.73 155.17 576.68 155.32 579.06C155.46 581.44 155.62 584.05 155.67 584.85C155.72 585.65 155.75 586.32 155.72 586.35C155.7 586.37 155.34 586.43 154.92 586.48L154.15 586.58C154.23 587.55 154.26 588.03 154.28 588.26C154.31 588.64 154.33 588.69 154.48 588.68C154.58 588.68 156.1 588.57 157.87 588.44L161.09 588.2C161.06 587.34 161.04 586.87 161.02 586.59L160.98 586.09C158.92 586.09 158.91 586.09 158.91 585.93C158.91 585.84 158.83 584.01 158.72 581.87C158.62 579.74 158.52 577.85 158.5 577.67C158.47 577.41 158.48 577.36 158.59 577.36C158.69 577.36 159.02 577.97 159.88 579.71C160.52 581 161.37 582.66 161.76 583.39C162.15 584.13 162.76 585.22 163.11 585.84C163.46 586.45 163.77 586.98 163.8 587.02C163.84 587.07 164.2 587.06 164.88 587.01C165.44 586.96 166.01 586.92 166.15 586.91C166.37 586.91 166.4 586.87 166.58 586.48C166.68 586.25 167.14 585.11 167.61 583.95C168.07 582.79 168.73 581.05 169.07 580.1C169.42 579.14 169.81 578.02 169.95 577.6C170.13 577.04 170.23 576.84 170.31 576.86C170.4 576.87 170.44 577.09 170.5 577.84C170.55 578.37 170.71 580.25 170.86 582.02C171.01 583.79 171.12 585.25 171.11 585.26C171.1 585.26 170.71 585.31 170.24 585.37L169.4 585.47C169.48 587.07 169.51 587.55 169.52 587.56C169.53 587.57 171.25 587.46 173.35 587.31C175.44 587.17 177.2 587.03 177.25 587.01C177.32 586.99 177.33 586.83 177.3 586.41C177.28 586.09 177.25 585.63 177.23 585.37L177.2 584.91C175.59 584.91 175.57 584.91 175.56 584.74C175.56 584.65 175.37 582.06 175.13 578.99C174.89 575.91 174.71 573.37 174.74 573.35C174.77 573.32 175.11 573.25 175.51 573.2L176.24 573.1C176.17 572.07 176.14 571.56 176.12 571.31L176.08 570.84C175.71 570.86 174.19 570.97 172.47 571.09ZM145.99 572.74C145.83 572.76 145.33 572.82 144.88 572.88C144.43 572.95 143.65 573.1 143.14 573.22C142.63 573.35 141.91 573.56 141.55 573.69C141.18 573.82 140.56 574.09 140.18 574.28C139.79 574.48 139.21 574.82 138.89 575.05C138.57 575.28 138 575.77 137.62 576.14C137.25 576.5 136.77 577.05 136.56 577.36C136.34 577.66 136.06 578.13 135.92 578.39C135.79 578.66 135.59 579.14 135.48 579.47C135.37 579.79 135.24 580.38 135.18 580.76C135.12 581.15 135.07 581.68 135.07 581.95C135.07 582.21 135.12 582.75 135.18 583.13C135.23 583.52 135.39 584.14 135.52 584.5C135.65 584.87 135.88 585.39 136.03 585.65C136.19 585.91 136.5 586.36 136.73 586.63C136.96 586.91 137.42 587.35 137.75 587.61C138.09 587.88 138.65 588.24 138.99 588.42C139.34 588.6 139.94 588.84 140.33 588.97C140.71 589.09 141.3 589.24 141.62 589.3C141.95 589.37 142.65 589.46 143.18 589.5C143.76 589.56 144.59 589.57 145.29 589.55C145.92 589.52 146.73 589.47 147.1 589.42C147.47 589.38 148.08 589.3 148.47 589.23C148.86 589.17 149.48 589.03 149.86 588.94C150.23 588.84 150.8 588.66 151.12 588.54C151.43 588.42 151.73 588.29 151.78 588.26C151.86 588.22 151.85 587.74 151.75 585.79C151.68 584.46 151.63 583.35 151.65 583.32C151.67 583.3 151.97 583.24 152.32 583.19L152.94 583.1C152.92 582.46 152.89 581.97 152.87 581.6C152.84 581.01 152.82 580.91 152.71 580.91C152.64 580.91 150.71 581.05 148.43 581.22C146.15 581.38 144.28 581.52 144.27 581.53C144.26 581.54 144.27 582.04 144.3 582.64L144.36 583.74C146.11 583.67 146.62 583.66 146.63 583.67C146.63 583.68 146.69 584.44 146.76 585.35C146.83 586.27 146.88 587.06 146.87 587.11C146.85 587.16 146.75 587.23 146.64 587.26C146.53 587.29 146.07 587.31 145.62 587.31C144.92 587.3 144.71 587.27 144.18 587.08C143.83 586.97 143.31 586.71 143.03 586.53C142.74 586.34 142.32 585.97 142.08 585.72C141.81 585.42 141.52 584.99 141.32 584.58C141.14 584.21 140.93 583.66 140.85 583.36C140.77 583.05 140.68 582.42 140.63 581.95C140.59 581.44 140.59 580.83 140.62 580.43C140.66 580.06 140.74 579.54 140.8 579.26C140.87 578.99 141.01 578.56 141.11 578.3C141.22 578.05 141.43 577.64 141.59 577.4C141.74 577.15 142.09 576.74 142.35 576.49C142.69 576.17 143.03 575.94 143.45 575.74C143.79 575.58 144.25 575.4 144.47 575.35C144.7 575.3 145.2 575.25 145.58 575.25C146.06 575.25 146.4 575.29 146.66 575.38C146.86 575.44 147.08 575.56 147.15 575.63C147.23 575.71 147.47 576.35 147.69 577.06C147.92 577.77 148.12 578.38 148.16 578.4C148.19 578.43 148.88 578.34 149.69 578.2C150.51 578.07 151.19 577.95 151.21 577.95C151.23 577.95 151.19 577.47 151.11 576.89C151.04 576.32 150.89 575.21 150.78 574.43L150.58 573.03C150.06 572.9 149.57 572.82 149.15 572.78C148.74 572.73 147.92 572.7 147.34 572.71C146.76 572.71 146.15 572.73 145.99 572.74Z" />
	</g>
</svg>