<svg xmlns="http://www.w3.org/2000/svg" viewBox="0 0 400 600" width="400" height="600">
	<style>
		.tattoo-05 { opacity: 0.749;fill: #000000 } 
	</style>
	<path id="tattoo-05" fill-rule="evenodd" class="tattoo-05" d="M51.03 561.59C51.47 561.67 51.85 561.81 52.31 562.06C52.84 562.34 53.07 562.54 53.44 563.03C53.69 563.37 53.93 563.87 53.98 564.12C54.02 564.38 54 564.73 53.92 564.89C53.84 565.06 53.63 565.41 53.45 565.67C53.26 565.93 52.77 566.42 52.36 566.76C51.65 567.34 51.59 567.38 50.41 567.72C49.75 567.9 48.95 568.16 48.61 568.3C48.28 568.44 47.77 568.7 47.48 568.89C47.2 569.07 46.8 569.33 46.59 569.46C46.38 569.58 46 569.86 45.74 570.08C45.39 570.38 45.23 570.57 45.07 570.92C44.95 571.16 44.68 571.6 44.47 571.88C44.25 572.16 43.83 572.64 43.53 572.94C43.24 573.24 42.78 573.63 42.52 573.81C42.26 573.99 41.77 574.44 41.44 574.82C41.1 575.2 40.75 575.55 40.66 575.62C40.56 575.68 40.46 575.78 40.43 575.85C40.39 575.91 40.47 576.2 40.59 576.5C40.7 576.8 40.82 577.2 40.84 577.38C40.86 577.56 40.87 578.04 40.83 579.18L40.36 580.05C40 580.72 39.79 581.03 39.04 581.85L38.94 582.4C38.86 582.87 38.8 583.03 38.56 583.39C38.34 583.73 38.28 583.87 38.3 584.02C38.31 584.22 38.31 584.22 38.53 584.22C38.65 584.22 38.88 584.3 39.04 584.39C39.2 584.48 39.48 584.7 39.66 584.88C39.83 585.06 40.21 585.39 40.5 585.61C40.78 585.83 41.31 586.24 41.67 586.52C42.02 586.81 42.34 587.06 42.38 587.06C42.42 587.06 42.67 586.78 42.94 586.44C43.41 585.82 43.43 585.81 43.75 585.83C44.02 585.85 44.11 585.9 44.33 586.2C44.47 586.39 44.64 586.69 44.7 586.87C44.76 587.05 44.84 587.62 44.87 588.15C44.91 588.69 45 589.34 45.08 589.6C45.17 589.86 45.33 590.32 45.45 590.62C45.57 590.93 45.71 591.44 45.76 591.76C45.82 592.08 45.89 592.7 45.92 593.13C45.99 593.75 45.97 594.03 45.84 594.49C45.75 594.82 45.6 595.13 45.49 595.22C45.39 595.31 45.17 595.34 45.02 595.29C44.87 595.24 44.63 595.08 44.51 594.93C44.38 594.79 44.2 594.47 44.11 594.22C44.03 593.97 43.85 593.48 43.72 593.12C43.6 592.76 43.37 592.15 43.2 591.76C43.04 591.37 42.83 590.91 42.71 590.74C42.56 590.51 42.47 590.45 42.34 590.47C42.2 590.51 42.16 590.47 42.12 590.29C42.08 590.15 42.01 590.05 41.92 589.99C41.79 589.92 41.78 589.93 41.64 590.6C41.54 591.11 41.51 591.62 41.55 592.59C41.59 593.33 41.6 594.22 41.57 594.58C41.54 594.93 41.46 595.48 41.41 595.79C41.35 596.11 41.22 596.49 41.13 596.65C41.03 596.82 40.87 596.97 40.76 596.99C40.65 597.01 40.49 596.95 40.41 596.85C40.32 596.73 40.25 596.39 40.23 595.91C40.22 595.49 40.15 594.78 40.09 594.32C40.02 593.83 39.85 593.07 39.68 592.48C39.41 591.54 39.38 591.47 38.79 590.51C38.45 589.98 38.01 589.38 37.8 589.14C37.59 588.92 37.24 588.62 37.03 588.47C36.81 588.34 36.18 587.84 35.6 587.4C35.02 586.98 34.42 586.55 34.28 586.42C34.14 586.29 33.85 586.07 33.65 585.95C33.44 585.82 32.85 585.39 32.32 585.02C31.78 584.65 30.83 584.07 30.2 583.73C29.57 583.4 29.04 583.11 29.01 583.08C28.98 583.05 28.42 582.74 27.75 582.42C26.76 581.94 26.51 581.85 26.24 581.9L26.33 582.08C26.38 582.17 26.39 582.25 26.37 582.25C26.34 582.25 26.04 582.12 25.7 581.97C25.36 581.81 25.02 581.68 24.93 581.67C24.84 581.65 24.03 581.31 23.12 580.92C21.68 580.29 21.47 580.19 21.15 579.96C20.95 579.81 20.73 579.65 20.64 579.59C20.56 579.53 19.96 579.26 19.32 578.99C18.68 578.72 18.12 578.49 18.06 578.48C18 578.47 17.57 578.3 17.12 578.11C16.39 577.8 16.28 577.77 16.14 577.8C16.05 577.83 15.96 577.83 15.93 577.82C15.92 577.82 16.07 577.4 16.3 576.73C16.73 576.91 17.33 577.16 18 577.43L20.32 578.38C20.51 577.8 20.61 577.48 20.66 577.29L20.76 576.95C19.3 576.27 19.29 576.26 19.33 576.15C19.35 576.09 19.75 574.88 20.2 573.47C20.65 572.06 21.03 570.81 21.05 570.7C21.09 570.52 21.12 570.49 21.19 570.52C21.26 570.54 21.35 571.03 21.54 572.41C21.68 573.44 21.88 574.8 21.99 575.41C22.1 576.03 22.27 576.97 22.38 577.5C22.49 578.03 22.59 578.5 22.6 578.54C22.62 578.59 22.89 578.72 23.42 578.92C23.87 579.1 24.31 579.28 24.42 579.32C24.59 579.4 24.62 579.39 24.86 579.18C25 579.06 25.65 578.44 26.32 577.79C27 577.15 27.99 576.16 28.52 575.61C29.07 575.05 29.7 574.39 29.92 574.14C30.23 573.81 30.36 573.7 30.43 573.74C30.5 573.78 30.48 573.95 30.33 574.5C30.23 574.9 29.84 576.3 29.48 577.63C29.1 578.97 28.78 580.06 28.77 580.07C28.76 580.07 28.43 579.95 28.05 579.8L27.35 579.54C26.98 580.72 26.87 581.07 26.88 581.08C26.88 581.09 28.26 581.72 29.94 582.53C31.6 583.4 32.96 584.18 33 584.19C33.06 584.21 33.13 584.09 33.26 583.75C33.36 583.49 33.5 583.11 33.58 582.9L33.72 582.52C32.46 581.74 32.44 581.73 32.49 581.61C32.52 581.54 33.22 579.49 34 577.08C34.73 574.7 35.33 572.75 35.37 572.73C35.4 572.72 35.75 572.8 36.14 572.91L36.85 573.11C37.11 572.31 37.23 571.91 37.29 571.71L37.39 571.35C37.03 571.23 35.54 570.78 33.89 570.3C31.56 569.65 31 569.51 30.93 569.56C30.88 569.59 29.61 571.01 28.12 572.68C26.16 574.87 25.42 575.66 25.36 575.63C25.3 575.61 25.04 574.17 24.6 571.49L23.91 567.57C23.37 567.43 22.23 567.11 21.06 566.79C19.92 566.48 19.06 569.18 18.59 570.71C18.12 572.24 17.58 573.92 17.42 574.44C17.25 574.96 17.1 575.39 17.08 575.4C17.07 575.41 16.96 575.38 16.8 575.33C18.06 571.78 20.26 565.69 20.43 565.71C20.65 565.75 21.06 565.82 21.33 565.87C21.61 565.92 22.33 566.06 22.94 566.18C23.57 566.29 24.29 566.43 24.55 566.47C24.8 566.51 25.26 566.6 25.55 566.69C25.86 566.77 26.46 566.91 26.9 567C27.46 567.11 27.72 567.14 27.74 567.1C27.75 567.06 27.82 567.04 27.9 567.05C27.98 567.06 29.58 567.47 35.33 569L35.53 569.2C35.72 569.39 35.8 569.42 36.45 569.6C37.15 569.8 37.17 569.81 37.46 570.23L37.17 570.28C37.01 570.31 36.87 570.36 36.86 570.39C36.85 570.42 37 570.51 37.57 570.71L37.69 570.51C37.76 570.4 37.99 570.18 38.19 570C38.4 569.83 38.86 569.55 39.21 569.39C39.56 569.22 40.07 569.01 40.33 568.92C40.59 568.82 40.92 568.67 41.07 568.57C41.21 568.47 41.34 568.34 41.37 568.29C41.39 568.23 41.36 568.15 41.3 568.12C41.24 568.08 41.06 568.06 40.89 568.08C40.72 568.1 40.48 568.08 40.35 568.04C40.22 568 40.09 567.93 40.05 567.87C40.01 567.81 39.99 567.65 40 567.52C40.02 567.39 40.01 567.26 39.98 567.24C39.95 567.22 39.94 567.16 39.96 567.11C39.98 567.06 40.09 567.02 40.22 567.01C40.34 567 40.45 566.97 40.47 566.92C40.48 566.88 40.4 566.82 40.3 566.79C40.14 566.75 40.12 566.71 40.18 566.64C40.22 566.6 40.22 566.5 40.16 566.43C40.11 566.36 40.08 566.28 40.09 566.25C40.1 566.22 40.26 566.12 40.44 566.03C40.62 565.94 40.8 565.8 40.83 565.71C40.86 565.63 41.04 565.45 41.23 565.31C41.43 565.16 41.68 564.96 41.79 564.86C41.9 564.77 42.16 564.65 42.35 564.61C42.69 564.55 42.79 564.56 43.72 564.8C44.73 565.07 44.74 565.07 44.94 565.33C45.05 565.48 45.14 565.66 45.14 565.74C45.14 565.82 45.17 565.94 45.22 566.01C45.26 566.08 45.28 566.27 45.27 566.44C45.25 566.67 45.2 566.77 45.1 566.8C45.03 566.83 45 566.86 45.03 566.87C45.07 566.88 44.98 567.02 44.84 567.18C44.69 567.33 44.55 567.53 44.46 567.77L44.66 567.67C44.78 567.61 45.16 567.45 45.51 567.31C45.92 567.15 46.44 567.03 46.94 566.98C47.38 566.93 47.94 566.85 48.19 566.79C48.45 566.74 48.75 566.69 48.87 566.68C48.99 566.67 49.43 566.59 49.85 566.5C50.56 566.34 50.61 566.31 50.47 566.2C50.36 566.11 50.16 566.06 49.84 566.03C49.56 566.01 49.22 565.93 48.98 565.82C48.76 565.73 48.42 565.53 48.23 565.37C48.04 565.22 47.78 564.91 47.66 564.69C47.54 564.46 47.41 564.12 47.37 563.92C47.32 563.65 47.35 563.42 47.49 563.04C47.64 562.63 47.76 562.45 48.03 562.22C48.22 562.06 48.56 561.85 48.79 561.76C49.02 561.67 49.35 561.57 49.52 561.54C49.7 561.51 49.97 561.48 50.13 561.48C50.29 561.48 50.7 561.53 51.03 561.59ZM16.8 575.33C16.61 575.86 16.44 576.34 16.3 576.73C15.95 576.58 15.73 576.49 15.7 576.47C15.6 576.43 15.6 576.39 15.67 576.15C15.72 575.99 15.82 575.69 16.01 575.06L16.53 575.24C16.62 575.27 16.72 575.3 16.8 575.33ZM35.04 565.18C35.23 565.23 35.24 565.25 35.18 565.53C35.15 565.69 35.02 566.27 34.88 566.8C34.75 567.34 34.64 567.79 34.64 567.79C34.65 567.8 35.1 567.92 35.66 568.07C36.22 568.22 36.88 568.39 37.56 568.55L37.38 569.03L35.63 568.55C34.69 568.3 33.92 568.1 33.91 568.09C33.9 568.09 34.02 567.56 34.18 566.92C34.33 566.28 34.48 565.61 34.52 565.43C34.57 565.16 34.6 565.11 34.71 565.12C34.79 565.13 34.93 565.16 35.04 565.18ZM31.22 564.37C31.39 564.41 31.4 564.43 31.35 564.7C31.32 564.85 31.2 565.4 31.08 565.91C30.96 566.43 30.86 566.85 30.86 566.86C30.86 566.87 31.28 566.98 31.8 567.11C32.32 567.24 32.93 567.39 33.55 567.53L33.4 567.99L31.77 567.57C30.9 567.34 30.2 567.16 30.19 567.16C30.18 567.15 30.29 566.65 30.43 566.04C30.57 565.42 30.71 564.78 30.74 564.61C30.79 564.35 30.82 564.31 30.92 564.32C30.98 564.32 31.12 564.35 31.22 564.37ZM28.6 563.81C28.7 563.84 28.83 564.14 29.27 565.41C29.56 566.28 29.78 567.02 29.76 567.05C29.73 567.07 29.6 567.06 29.47 567.02C29.25 566.95 29.23 566.92 28.96 566.11L28.12 565.9C27.67 565.79 27.29 565.7 27.27 565.7C27.25 565.7 27.11 565.84 26.69 566.31L26.43 566.23C26.29 566.18 26.17 566.13 26.18 566.12C26.18 566.11 26.66 565.6 27.24 564.99C27.83 564.38 28.35 563.85 28.39 563.82C28.43 563.8 28.52 563.79 28.6 563.81ZM27.91 565.03L27.57 565.38C28.49 565.6 28.77 565.66 28.79 565.66C28.8 565.66 28.74 565.41 28.66 565.11C28.57 564.8 28.47 564.55 28.44 564.54C28.4 564.53 28.35 564.55 28.31 564.6C28.28 564.64 28.1 564.83 27.91 565.03ZM25.29 563.12C25.65 563.22 25.87 563.3 25.99 563.39C26.09 563.46 26.19 563.59 26.21 563.69C26.23 563.78 26.22 563.95 26.19 564.07C26.15 564.19 26.07 564.31 25.99 564.36C25.86 564.45 25.86 564.45 26.01 564.62C26.09 564.72 26.17 564.9 26.18 565.03C26.2 565.18 26.18 565.33 26.12 565.43C26.07 565.52 25.96 565.64 25.87 565.71C25.77 565.78 25.58 565.85 25.43 565.86C25.22 565.87 24.92 565.82 24.07 565.6C23.48 565.46 23.01 565.34 23 565.33C22.99 565.33 23.12 564.75 23.28 564.06C23.43 563.36 23.57 562.79 23.59 562.77C23.61 562.76 23.88 562.81 24.2 562.87C24.52 562.94 25.01 563.05 25.29 563.12ZM24 563.26C23.97 563.27 23.93 563.4 23.91 563.55L23.86 563.82C25.06 564.1 25.38 564.16 25.48 564.14C25.58 564.11 25.64 564.06 25.67 563.93C25.71 563.81 25.7 563.74 25.63 563.68C25.57 563.64 25.38 563.57 25.21 563.52C25.03 563.48 24.7 563.4 24.47 563.34C24.24 563.29 24.03 563.25 24 563.26ZM24.02 564.29L23.73 564.23C23.6 564.85 23.56 565.04 23.56 565.04C23.56 565.05 23.91 565.14 24.33 565.25C24.76 565.35 25.18 565.45 25.25 565.45C25.33 565.46 25.45 565.41 25.53 565.34C25.61 565.26 25.67 565.15 25.67 565.06C25.68 564.98 25.64 564.86 25.6 564.79C25.53 564.68 25.45 564.64 25.19 564.57C25.01 564.52 24.74 564.45 24.59 564.42C24.44 564.38 24.18 564.32 24.02 564.29ZM23 562.59C23.28 562.66 23.28 562.66 23.25 562.82C23.24 562.9 23.22 562.99 23.2 563.01C23.18 563.02 22.85 562.55 23 562.59Z" />
</svg>