<svg xmlns="http://www.w3.org/2000/svg" viewBox="0 0 400 600" width="400" height="600">
	<path id="Head 7" class="head" d="M200 100C300 100 350 160 350 300C350 320 330 420 325 430C320.53 438.94 220 500 220 500C220 500 215 500 200 500C185 500 180 500 180 500C180 500 81.71 443.42 75 430C70 420 50 320 50 300C50 160 100 100 200 100Z" fill="$[skinColor]" stroke="#000000" stroke-width="1"/>
	<!--  -->
	<path id="head-7-tone" class="head-7-tone" d="M200 100C300 100 350 160 350 300C350 320 330 420 325 430C320.53 438.94 220 500 220 500C220 500 215 500 200 500C185 500 180 500 180 500C180 500 81.71 443.42 75 430C70 420 50 320 50 300C50 160 100 100 200 100Z" mix-blend-mode="color-burn" fill="$[skinTone]" />
	<!--  -->
	<path id="faceShave" class="faceShave" d="M200 410C230 410 250 420 250 420C280 420 340 405 340 300L350 300C350 320 330 420 325 430C320.53 438.94 220 500 220 500C220 500 215 500 200 500C185 500 180 500 180 500C180 500 81.71 443.42 75 430C70 420 50 320 50 300L60 300C60 405 120 420 150 420C150 420 170 410 200 410Z" fill="$[faceShave]"/>
	<path id="headShave" class="headShave" d="M60 310L50 310C50 310 50 305 50 300C50 160 100 100 200 100C300 100 350 160 350 300C350 305 350 310 350 310L340 310C340 310 340 295 340 290C340 285 330 270 325 265C320 260 320 210 310 200C270 160 250 160 200 160C150 160 130 160 90 200C80 210 80 260 75 265C70 270 60 285 60 290C60 295 60 310 60 310Z" fill="$[headShave]"/>
</svg>